0
SECTION
2
HEADER
999
*** POWERPCB  HEADER ***
9
$EXTMIN
10
-20.5766373333
20
-3.208312
9
$EXTMAX
10
20.3685273333
20
66.4476553333
9
$FILLMODE
70
0
9
$GRIDMODE
70
1
9
$GRIDUNIT
10
0.1
20
0.1
9
$INSBASE
10
-465.8882513333
20
-466.7087173333
9
$LIMCHECK
70
0
9
$PLINEWID
40
0.1
9
$SNAPMODE
70
0
9
$SNAPUNIT
10
0.01
20
0.01
9
$TEXTSIZE
40
2.54
9
$TEXTSTYLE
7
W0$254
9
$USERI1
70
101
9
$USERI2
70
1
9
$USERI5
70
150
9
$VIEWCTR
10
2.8658286667
20
48.8629166667
0
ENDSEC
0
SECTION
2
TABLES
999
*** POWERPCB  LTYPE ***
0
TABLE
2
LTYPE
70
2
0
LTYPE
2
CONTINUOUS
70
64
3
---
72
65
73
0
40
0
0
LTYPE
2
TRMIDX_4096
70
64
3
---
72
65
73
2
40
2
49
1
49
1
0
LTYPE
2
TRMIDX_2048
70
64
3
---
72
65
73
2
40
2
49
1
49
1
0
ENDTAB
999
*** POWERPCB  LAYER ***
0
TABLE
2
LAYER
70
36
0
LAYER
2
DBLAYERS
70
1
62
-254
6
CONTINUOUS
0
LAYER
2
BOARD_OUTLINE_00
70
0
62
254
6
CONTINUOUS
0
LAYER
2
BOARD_CUTOUT_00
70
0
62
254
6
CONTINUOUS
0
LAYER
2
2D_LINE_126
70
0
62
254
6
CONTINUOUS
0
LAYER
2
DIMENSION7_00
70
0
62
254
6
CONTINUOUS
0
LAYER
2
DIMENSION1_00
70
0
62
254
6
CONTINUOUS
0
LAYER
2
DIMENSION3_00
70
0
62
254
6
CONTINUOUS
0
LAYER
2
DIMENSION2_00
70
0
62
254
6
CONTINUOUS
0
LAYER
2
DIMENSION4_00
70
0
62
254
6
CONTINUOUS
0
LAYER
2
DIMENSION5_00
70
0
62
254
6
CONTINUOUS
0
LAYER
2
DIMENSION6_00
70
0
62
254
6
CONTINUOUS
0
LAYER
2
TEXT_01
70
0
62
5
6
CONTINUOUS
0
LAYER
2
TEXT_126
70
0
62
254
6
CONTINUOUS
0
LAYER
2
LABEL_INFO
70
1
62
-254
6
CONTINUOUS
0
LAYER
2
LABEL_ATTRIBUTE
70
1
62
-254
6
CONTINUOUS
0
LAYER
2
PART_NAME_01
70
0
62
254
6
CONTINUOUS
0
LAYER
2
ATTRIBUTE_126
70
1
62
-254
6
CONTINUOUS
0
LAYER
2
PART_TYPE_TOP
70
1
62
-250
6
CONTINUOUS
0
LAYER
2
PART_INFO
70
1
62
-254
6
CONTINUOUS
0
LAYER
2
PART_PTS
70
1
62
-254
6
CONTINUOUS
0
LAYER
2
SYM_NAME
70
1
62
-254
6
CONTINUOUS
0
LAYER
2
SYM_PART_NAME_126
70
1
62
-254
6
CONTINUOUS
0
LAYER
2
SYM_ATTRIBUTE_126
70
1
62
-254
6
CONTINUOUS
0
LAYER
2
SYM_TERMINAL
70
1
62
-254
6
CONTINUOUS
0
LAYER
2
PKG_INFO
70
1
62
-254
6
CONTINUOUS
0
LAYER
2
SYM_PART_NAME_01
70
1
62
-254
6
CONTINUOUS
0
LAYER
2
SYM_ATTRIBUTE_01
70
1
62
-254
6
CONTINUOUS
0
LAYER
2
PART_TOP_2DLINE_117
70
1
62
-250
6
CONTINUOUS
0
LAYER
2
DRIL_PLTE_THRU_01
70
0
62
16
6
CONTINUOUS
0
LAYER
2
DRIL_PLTE_THRU_02
70
0
62
176
6
CONTINUOUS
0
LAYER
2
PADS_INNER
70
0
62
1
6
CONTINUOUS
0
LAYER
2
PADS_BOT
70
0
62
5
6
CONTINUOUS
0
LAYER
2
PADS_TOP
70
0
62
1
6
CONTINUOUS
0
LAYER
2
PART_TOP_2DLINE_126
70
0
62
254
6
CONTINUOUS
0
LAYER
2
PCB_PARAMS
70
1
62
-254
6
CONTINUOUS
0
LAYER
2
DRIL_SYMBOL
70
0
62
254
6
CONTINUOUS
0
ENDTAB
999
*** POWERPCB  TEXT STYLE ***
0
TABLE
2
STYLE
70
8
0
STYLE
2
W0$254
70
64
40
0
41
0.75
42
0
50
0
71
0
3
simplex
0
STYLE
2
W0$1524
70
64
40
0
41
0.75
42
0
50
0
71
0
3
simplex
0
STYLE
2
W0$65
70
64
40
0
41
0.75
42
0
50
0
71
0
3
simplex
0
STYLE
2
W0$127
70
64
40
0
41
0.75
42
0
50
0
71
0
3
simplex
0
STYLE
2
W0$2
70
64
40
0
41
0.75
42
0
50
0
71
0
3
simplex
0
STYLE
2
W0$1
70
64
40
0
41
0.75
42
0
50
0
71
0
3
simplex
0
STYLE
2
W0$12
70
64
40
0
41
0.75
42
0
50
0
71
0
3
simplex
0
STYLE
2
W0$127R0
70
64
40
0
41
0.75
42
0
50
0
71
0
3
simplex
0
ENDTAB
0
ENDSEC
0
SECTION
2
BLOCKS
999
*** POWERPCB  DBLAYER ***
0
BLOCK
2
DBLAYERS
8
0
10
0
20
0
3
DBLAYERS
70
64
0
TEXT
8
DBLAYERS
10
0
20
-3.048
40
1.778
1
__It__Is__Job__Name__:=T-AMOLED_1.1.pcb
999
 *  1.Number             2.Type                  3.RouteColor
999
 *  4.ViaColor           5.PadColor              6.CopperColor
999
 *  7.2DLineColor        8.TextColor             9.ErrorColor
999
 * 10.TopComponentColor 11.BottomComponentColor 12.RoutingDirection
999
 * 13.LayerThickness    14.CopperThickness      15.Dielectric
999
 * 16.IsRouteable       17.IsVisible            18.IsSelectable
999
 * 19.IsPrepreg         20.AssSilkScreen        21.AssPasteMask
999
 * 22.AssSolderMask     23.AssAssembly
0
TEXT
8
DBLAYERS
10
0
20
-6.096
40
1.778
1
Top:=1 1 12 8 12 28 14 9 15 8 0 0 381000 51435 4.3000001907 1 1 1 0 126 123 121 127 0 0 1 8 0 9 27 
0
TEXT
8
DBLAYERS
10
0
20
-9.144
40
1.778
1
Silkscreen Top:=126 3 0 0 0 8 8 8 0 8 0 2 0 0 3.2999999523 0 1 1 0 -1 -1 -1 -1 0 0 0 8 0 8 8 
0
ENDBLK
999
*** POWERPCB  BOARD ***
0
BLOCK
2
BOARD_47
8
0
10
0
20
0
3
BOARD_47
70
64
0
POLYLINE
8
BOARD_OUTLINE_00
66
1
40
0.1
41
0.1
70
1
0
VERTEX
8
BOARD_OUTLINE_00
10
-0.0000046667
20
-10.6710033333
0
VERTEX
8
BOARD_OUTLINE_00
10
-0.0000046667
20
45.987288
0
VERTEX
8
BOARD_OUTLINE_00
10
20.1613553333
20
45.987288
0
VERTEX
8
BOARD_OUTLINE_00
10
20.1613553333
20
-10.6710033333
0
SEQEND
0
INSERT
2
SMOOTH_0$1
8
BOARD_OUTLINE_00
10
-0.0000046667
20
-10.6710033333
0
INSERT
2
SMOOTH_0$1
8
BOARD_OUTLINE_00
10
-0.0000046667
20
45.987288
0
INSERT
2
SMOOTH_0$1
8
BOARD_OUTLINE_00
10
20.1613553333
20
45.987288
0
INSERT
2
SMOOTH_0$1
8
BOARD_OUTLINE_00
10
20.1613553333
20
-10.6710033333
0
POLYLINE
8
BOARD_CUTOUT_00
66
1
40
0.1
41
0.1
70
1
0
VERTEX
8
BOARD_CUTOUT_00
10
17.234454
20
-1.801918
42
1
0
VERTEX
8
BOARD_CUTOUT_00
10
15.234454
20
-1.801918
42
1
0
SEQEND
0
POLYLINE
8
BOARD_CUTOUT_00
66
1
40
0.1
41
0.1
70
1
0
VERTEX
8
BOARD_CUTOUT_00
10
5.6520006667
20
9.338754
42
1
0
VERTEX
8
BOARD_CUTOUT_00
10
3.6520006667
20
9.338754
42
1
0
SEQEND
0
POLYLINE
8
BOARD_CUTOUT_00
66
1
40
0.1
41
0.1
70
1
0
VERTEX
8
BOARD_CUTOUT_00
10
19.1932693333
20
-8.8302773333
42
1
0
VERTEX
8
BOARD_CUTOUT_00
10
17.1932693333
20
-8.8302773333
42
1
0
SEQEND
0
POLYLINE
8
BOARD_CUTOUT_00
66
1
40
0.1
41
0.1
70
1
0
VERTEX
8
BOARD_CUTOUT_00
10
2.9751826667
20
-8.791264
42
1
0
VERTEX
8
BOARD_CUTOUT_00
10
0.9751826667
20
-8.791264
42
1
0
SEQEND
0
POLYLINE
8
BOARD_CUTOUT_00
66
1
40
0.1
41
0.1
70
1
0
VERTEX
8
BOARD_CUTOUT_00
10
7.0372266667
20
-4.331766
42
1
0
VERTEX
8
BOARD_CUTOUT_00
10
6.2372266667
20
-4.331766
42
1
0
SEQEND
0
POLYLINE
8
BOARD_CUTOUT_00
66
1
40
0.1
41
0.1
70
1
0
VERTEX
8
BOARD_CUTOUT_00
10
13.632664
20
-4.321696
42
1
0
VERTEX
8
BOARD_CUTOUT_00
10
12.832664
20
-4.321696
42
1
0
SEQEND
0
ENDBLK
999
*** POWERPCB  2DLINE ***
0
BLOCK
2
DRAWING_3
8
0
10
0
20
0
3
DRAWING_3
70
64
0
POLYLINE
8
2D_LINE_126
66
1
40
0.0999993333
41
0.0999993333
70
1
0
VERTEX
8
2D_LINE_126
10
7
20
0
42
1
0
VERTEX
8
2D_LINE_126
10
-7
20
0
42
1
0
SEQEND
0
ENDBLK
0
BLOCK
2
D_2dfeghi_28
8
0
10
0
20
0
3
D_2dfeghi_28
70
64
0
ENDBLK
0
BLOCK
2
D_2dfeghi_29
8
0
10
0
20
0
3
D_2dfeghi_29
70
64
0
ENDBLK
0
BLOCK
2
D_2dfeghi_30
8
0
10
0
20
0
3
D_2dfeghi_30
70
64
0
POLYLINE
8
DIMENSION7_00
6
TRMIDX_4096
66
1
40
0.0254
41
0.0254
0
VERTEX
8
DIMENSION7_00
10
-0.0073933333
20
3.0936126667
0
VERTEX
8
DIMENSION7_00
10
-0.0067266667
20
3.0936126667
0
SEQEND
0
POLYLINE
8
DIMENSION7_00
6
TRMIDX_4096
66
1
40
0.0254
41
0.0254
0
VERTEX
8
DIMENSION7_00
10
0
20
59.7396033333
0
VERTEX
8
DIMENSION7_00
10
0.0006666667
20
59.7396033333
0
SEQEND
0
POLYLINE
8
DIMENSION1_00
6
TRMIDX_4096
66
1
40
0.254
41
0.254
0
VERTEX
8
DIMENSION1_00
10
-7.5510313333
20
3.0936126667
0
VERTEX
8
DIMENSION1_00
10
-7.5510313333
20
29.702108
0
SEQEND
0
POLYLINE
8
DIMENSION3_00
6
TRMIDX_4096
66
1
40
0.254
41
0.254
70
1
0
VERTEX
8
DIMENSION3_00
10
-7.5510313333
20
3.0936126667
0
VERTEX
8
DIMENSION3_00
10
-8.1860313333
20
5.633612
0
VERTEX
8
DIMENSION3_00
10
-6.9160313333
20
5.633612
0
SEQEND
0
POLYLINE
8
DIMENSION2_00
6
TRMIDX_4096
66
1
40
0.254
41
0.254
0
VERTEX
8
DIMENSION2_00
10
-7.5510313333
20
59.7396033333
0
VERTEX
8
DIMENSION2_00
10
-7.5510313333
20
33.131108
0
SEQEND
0
POLYLINE
8
DIMENSION4_00
6
TRMIDX_4096
66
1
40
0.254
41
0.254
70
1
0
VERTEX
8
DIMENSION4_00
10
-7.5510313333
20
59.7396033333
0
VERTEX
8
DIMENSION4_00
10
-6.9160313333
20
57.199604
0
VERTEX
8
DIMENSION4_00
10
-8.1860313333
20
57.199604
0
SEQEND
0
POLYLINE
8
DIMENSION5_00
6
TRMIDX_4096
66
1
40
0.254
41
0.254
0
VERTEX
8
DIMENSION5_00
10
-1.2773933333
20
3.0936126667
0
VERTEX
8
DIMENSION5_00
10
-8.8210313333
20
3.0936126667
0
SEQEND
0
POLYLINE
8
DIMENSION6_00
6
TRMIDX_4096
66
1
40
0.254
41
0.254
0
VERTEX
8
DIMENSION6_00
10
-1.27
20
59.7396033333
0
VERTEX
8
DIMENSION6_00
10
-8.8210313333
20
59.7396033333
0
SEQEND
0
TEXT
8
TEXT_01
10
-11.476486
20
30.464108
40
1.778
1
56.6mm
41
0.75
7
W0$254
0
ENDBLK
0
BLOCK
2
D_1dfeghi_31
8
0
10
0
20
0
3
D_1dfeghi_31
70
64
0
POLYLINE
8
DIMENSION7_00
6
TRMIDX_2048
66
1
40
0.0254
41
0.0254
0
VERTEX
8
DIMENSION7_00
10
0
20
0
0
VERTEX
8
DIMENSION7_00
10
0.0006666667
20
0
0
SEQEND
0
POLYLINE
8
DIMENSION7_00
6
TRMIDX_2048
66
1
40
0.0254
41
0.0254
0
VERTEX
8
DIMENSION7_00
10
20.16136
20
0
0
VERTEX
8
DIMENSION7_00
10
20.1620266667
20
0
0
SEQEND
0
POLYLINE
8
DIMENSION1_00
6
TRMIDX_2048
66
1
40
0.254
41
0.254
0
VERTEX
8
DIMENSION1_00
10
0
20
8.392364
0
VERTEX
8
DIMENSION1_00
10
5.364362
20
8.392364
0
SEQEND
0
POLYLINE
8
DIMENSION3_00
6
TRMIDX_2048
66
1
40
0.254
41
0.254
70
1
0
VERTEX
8
DIMENSION3_00
10
0
20
8.392364
0
VERTEX
8
DIMENSION3_00
10
2.54
20
9.027364
0
VERTEX
8
DIMENSION3_00
10
2.54
20
7.757364
0
SEQEND
0
POLYLINE
8
DIMENSION2_00
6
TRMIDX_2048
66
1
40
0.254
41
0.254
0
VERTEX
8
DIMENSION2_00
10
20.16136
20
8.392364
0
VERTEX
8
DIMENSION2_00
10
14.7969986667
20
8.392364
0
SEQEND
0
POLYLINE
8
DIMENSION4_00
6
TRMIDX_2048
66
1
40
0.254
41
0.254
70
1
0
VERTEX
8
DIMENSION4_00
10
20.16136
20
8.392364
0
VERTEX
8
DIMENSION4_00
10
17.62136
20
7.757364
0
VERTEX
8
DIMENSION4_00
10
17.62136
20
9.027364
0
SEQEND
0
POLYLINE
8
DIMENSION5_00
6
TRMIDX_2048
66
1
40
0.254
41
0.254
0
VERTEX
8
DIMENSION5_00
10
0
20
1.27
0
VERTEX
8
DIMENSION5_00
10
0
20
9.662364
0
SEQEND
0
POLYLINE
8
DIMENSION6_00
6
TRMIDX_2048
66
1
40
0.254
41
0.254
0
VERTEX
8
DIMENSION6_00
10
20.16136
20
1.27
0
VERTEX
8
DIMENSION6_00
10
20.16136
20
9.662364
0
SEQEND
0
TEXT
8
TEXT_01
10
6.126362
20
7.439864
40
1.778
1
20.2mm
41
0.75
7
W0$254
0
ENDBLK
999
*** POWERPCB  COMPONENT ***
0
BLOCK
2
PART_TOP_9
8
0
10
0
20
0
3
PART_TOP_9
70
64
0
INSERT
2
SYM_TOP_4
8
0
10
0
20
0
0
INSERT
2
PKG_2
8
0
10
0
20
0
0
TEXT
8
LABEL_INFO
10
-0.0490353333
20
2.9222673333
40
0.49
1
0 0 0 0 0 1
41
0.75
7
W0$1
0
TEXT
8
LABEL_ATTRIBUTE
10
-0.0490353333
20
2.9222673333
40
0.49
1
Ref.Des.
41
0.75
7
W0$1
0
TEXT
8
PART_NAME_01
10
-0.0490353333
20
2.9222673333
40
0.49
1
T1
41
0.75
7
W0$1
0
TEXT
8
LABEL_INFO
10
-3.3978446667
20
-1.508488
40
0.49
1
0 162000000 0 0 0 1
50
90
41
0.75
7
W0$1
0
TEXT
8
LABEL_ATTRIBUTE
10
-3.3978446667
20
-1.508488
40
0.49
1
Comment
50
90
41
0.75
7
W0$1
0
TEXT
8
ATTRIBUTE_126
10
-3.3978446667
20
-1.508488
40
0.49
1
Track Ball
50
90
41
0.75
7
W0$1
0
TEXT
8
LABEL_INFO
10
-5.2704993333
20
-6.9469
40
1.0668
1
0 0 0 0 0 0
41
0.75
7
W0$254
0
TEXT
8
LABEL_ATTRIBUTE
10
-5.2704993333
20
-6.9469
40
1.0668
1
Comment
41
0.75
7
W0$254
0
TEXT
8
ATTRIBUTE_126
10
-5.2704993333
20
-6.9469
40
1.0668
1
Track Ball
41
0.75
7
W0$254
0
TEXT
8
PART_TYPE_TOP
10
-5.2704993333
20
-8.4709
40
1.0668
1
TRACK_BALL
41
0.75
7
W0$254
0
TEXT
8
PART_INFO
10
-5.2704993333
20
-9.9949
40
1.0668
1
000000
41
0.75
7
W0$254
0
TEXT
8
PART_PTS
10
-5.2704993333
20
-11.5189
40
1.0668
1
1 2 3 4 
41
0.75
7
W0$254
0
ENDBLK
0
BLOCK
2
PART_TOP_10
8
0
10
0
20
0
3
PART_TOP_10
70
64
0
INSERT
2
SYM_TOP_8
8
0
10
0
20
0
0
INSERT
2
PKG_6
8
0
10
0
20
0
0
TEXT
8
LABEL_INFO
10
-8.2165433333
20
2.0928106667
40
0.49
1
0 162000000 0 0 0 1
50
90
41
0.75
7
W0$12
0
TEXT
8
LABEL_ATTRIBUTE
10
-8.2165433333
20
2.0928106667
40
0.49
1
Ref.Des.
50
90
41
0.75
7
W0$12
0
TEXT
8
PART_NAME_01
10
-8.2165433333
20
2.0928106667
40
0.49
1
P1
50
90
41
0.75
7
W0$12
0
TEXT
8
LABEL_INFO
10
-3.7424233333
20
5.5572726667
40
0.889
1
0 324000000 0 0 0 1
50
180
41
0.75
7
W0$127
0
TEXT
8
LABEL_ATTRIBUTE
10
-3.7424233333
20
5.5572726667
40
0.889
1
Comment
50
180
41
0.75
7
W0$127
0
TEXT
8
ATTRIBUTE_126
10
-3.7424233333
20
5.5572726667
40
0.889
1
H_Header_13P_6x7
50
180
41
0.75
7
W0$127
0
TEXT
8
PART_TYPE_TOP
10
-3.7424233333
20
4.2872726667
40
0.889
1
H_HEADER_13P_6X7
50
180
41
0.75
7
W0$127
0
TEXT
8
PART_INFO
10
-3.7424233333
20
3.0172726667
40
0.889
1
000010
50
180
41
0.75
7
W0$127
0
TEXT
8
PART_PTS
10
-3.7424233333
20
1.7472726667
40
0.889
1
1 2 3 4 5 6 7 8 9 10 11 12 13 14 15 
50
180
41
0.75
7
W0$127
0
ENDBLK
0
BLOCK
2
PART_TOP_16
8
0
10
0
20
0
3
PART_TOP_16
70
64
0
INSERT
2
SYM_TOP_36
8
0
10
0
20
0
0
INSERT
2
PKG_3
8
0
10
0
20
0
0
TEXT
8
LABEL_INFO
10
-0.8837246667
20
-0.55486
40
0.49
1
0 0 0 0 0 1
41
0.75
7
W0$1
0
TEXT
8
LABEL_ATTRIBUTE
10
-0.8837246667
20
-0.55486
40
0.49
1
Ref.Des.
41
0.75
7
W0$1
0
TEXT
8
PART_NAME_01
10
-0.8837246667
20
-0.55486
40
0.49
1
U5
41
0.75
7
W0$1
0
TEXT
8
LABEL_INFO
10
-11.9418426667
20
-0.8240713333
40
0.889
1
0 0 0 0 0 1
41
0.75
7
W0$127
0
TEXT
8
LABEL_ATTRIBUTE
10
-11.9418426667
20
-0.8240713333
40
0.889
1
Comment
41
0.75
7
W0$127
0
TEXT
8
ATTRIBUTE_126
10
-11.9418426667
20
-0.8240713333
40
0.889
1
15PIN_2.54
41
0.75
7
W0$127
0
TEXT
8
PART_TYPE_TOP
10
-11.9418426667
20
-2.0940713333
40
0.889
1
13PIN_2.54
41
0.75
7
W0$127
0
TEXT
8
PART_INFO
10
-11.9418426667
20
-3.3640713333
40
0.889
1
000001
41
0.75
7
W0$127
0
TEXT
8
PART_PTS
10
-11.9418426667
20
-4.6340713333
40
0.889
1
1 2 3 4 5 6 7 8 9 10 11 12 13 
41
0.75
7
W0$127
0
ENDBLK
0
BLOCK
2
PART_TOP_38
8
0
10
0
20
0
3
PART_TOP_38
70
64
0
INSERT
2
SYM_TOP_26
8
0
10
0
20
0
0
INSERT
2
PKG_24
8
0
10
0
20
0
0
TEXT
8
LABEL_INFO
10
-0.6198733333
20
-0.0992573333
40
0.49
1
0 0 0 0 0 1
41
0.75
7
W0$1
0
TEXT
8
LABEL_ATTRIBUTE
10
-0.6198733333
20
-0.0992573333
40
0.49
1
Ref.Des.
41
0.75
7
W0$1
0
TEXT
8
PART_NAME_01
10
-0.6198733333
20
-0.0992573333
40
0.49
1
RY31
41
0.75
7
W0$1
0
TEXT
8
LABEL_INFO
10
-0.3914573333
20
-0.2308073333
40
0.49
1
0 0 0 0 0 1
41
0.75
7
W0$1
0
TEXT
8
LABEL_ATTRIBUTE
10
-0.3914573333
20
-0.2308073333
40
0.49
1
Comment
41
0.75
7
W0$1
0
TEXT
8
ATTRIBUTE_126
10
-0.3914573333
20
-0.2308073333
40
0.49
1
100K
41
0.75
7
W0$1
0
TEXT
8
PART_TYPE_TOP
10
-0.3914573333
20
-0.9308073333
40
0.49
1
R_2
41
0.75
7
W0$1
0
TEXT
8
PART_INFO
10
-0.3914573333
20
-1.6308073333
40
0.49
1
000000
41
0.75
7
W0$1
0
TEXT
8
PART_PTS
10
-0.3914573333
20
-2.3308073333
40
0.49
1
1 2 
41
0.75
7
W0$1
0
ENDBLK
0
BLOCK
2
PART_TOP_40
8
0
10
0
20
0
3
PART_TOP_40
70
64
0
INSERT
2
SYM_TOP_2
8
0
10
0
20
0
0
INSERT
2
PKG_0
8
0
10
0
20
0
0
TEXT
8
LABEL_INFO
10
-0.075136
20
-0.362352
40
0.49
1
0 162000000 0 0 0 1
50
90
41
0.75
7
W0$1
0
TEXT
8
LABEL_ATTRIBUTE
10
-0.075136
20
-0.362352
40
0.49
1
Ref.Des.
50
90
41
0.75
7
W0$1
0
TEXT
8
PART_NAME_01
10
-0.075136
20
-0.362352
40
0.49
1
UZ4
50
90
41
0.75
7
W0$1
0
TEXT
8
LABEL_INFO
10
0.223942
20
1.0166493333
40
0.49
1
0 162000000 0 0 0 1
50
90
41
0.75
7
W0$1
0
TEXT
8
LABEL_ATTRIBUTE
10
0.223942
20
1.0166493333
40
0.49
1
Comment
50
90
41
0.75
7
W0$1
0
TEXT
8
ATTRIBUTE_126
10
0.223942
20
1.0166493333
40
0.49
1
AN48841B
50
90
41
0.75
7
W0$1
0
TEXT
8
LABEL_INFO
10
3.7465
20
-0.8001
40
1.0668
1
0 162000000 0 0 0 0
50
90
41
0.75
7
W0$254
0
TEXT
8
LABEL_ATTRIBUTE
10
3.7465
20
-0.8001
40
1.0668
1
Comment
50
90
41
0.75
7
W0$254
0
TEXT
8
ATTRIBUTE_126
10
3.7465
20
-0.8001
40
1.0668
1
AN48841B
50
90
41
0.75
7
W0$254
0
TEXT
8
PART_TYPE_TOP
10
3.7465
20
-2.3241
40
1.0668
1
AN48841B
50
90
41
0.75
7
W0$254
0
TEXT
8
PART_INFO
10
3.7465
20
-3.8481
40
1.0668
1
000000
50
90
41
0.75
7
W0$254
0
TEXT
8
PART_PTS
10
3.7465
20
-5.3721
40
1.0668
1
2 4 5 
50
90
41
0.75
7
W0$254
0
ENDBLK
0
BLOCK
2
PART_TOP_53
8
0
10
0
20
0
3
PART_TOP_53
70
64
0
INSERT
2
SYM_TOP_2
8
0
10
0
20
0
0
INSERT
2
PKG_0
8
0
10
0
20
0
0
TEXT
8
LABEL_INFO
10
0.752344
20
-0.1286793333
40
0.49
1
0 324000000 0 0 0 1
50
180
41
0.75
7
W0$1
0
TEXT
8
LABEL_ATTRIBUTE
10
0.752344
20
-0.1286793333
40
0.49
1
Ref.Des.
50
180
41
0.75
7
W0$1
0
TEXT
8
PART_NAME_01
10
0.752344
20
-0.1286793333
40
0.49
1
UZ1
50
180
41
0.75
7
W0$1
0
TEXT
8
LABEL_INFO
10
1.9676226667
20
-1.022408
40
0.49
1
0 324000000 0 0 0 1
50
180
41
0.75
7
W0$1
0
TEXT
8
LABEL_ATTRIBUTE
10
1.9676226667
20
-1.022408
40
0.49
1
Comment
50
180
41
0.75
7
W0$1
0
TEXT
8
ATTRIBUTE_126
10
1.9676226667
20
-1.022408
40
0.49
1
AN48841B
50
180
41
0.75
7
W0$1
0
TEXT
8
LABEL_INFO
10
0.8001
20
3.7465
40
1.0668
1
0 324000000 0 0 0 0
50
180
41
0.75
7
W0$254
0
TEXT
8
LABEL_ATTRIBUTE
10
0.8001
20
3.7465
40
1.0668
1
Comment
50
180
41
0.75
7
W0$254
0
TEXT
8
ATTRIBUTE_126
10
0.8001
20
3.7465
40
1.0668
1
AN48841B
50
180
41
0.75
7
W0$254
0
TEXT
8
PART_TYPE_TOP
10
0.8001
20
2.2225
40
1.0668
1
AN48841B
50
180
41
0.75
7
W0$254
0
TEXT
8
PART_INFO
10
0.8001
20
0.6985
40
1.0668
1
000000
50
180
41
0.75
7
W0$254
0
TEXT
8
PART_PTS
10
0.8001
20
-0.8255
40
1.0668
1
2 4 5 
50
180
41
0.75
7
W0$254
0
ENDBLK
0
BLOCK
2
PART_TOP_54
8
0
10
0
20
0
3
PART_TOP_54
70
64
0
INSERT
2
SYM_TOP_2
8
0
10
0
20
0
0
INSERT
2
PKG_0
8
0
10
0
20
0
0
TEXT
8
LABEL_INFO
10
1.15286
20
0.6914926667
40
0.49
1
0 486000000 0 0 0 1
50
270
41
0.75
7
W0$1
0
TEXT
8
LABEL_ATTRIBUTE
10
1.15286
20
0.6914926667
40
0.49
1
Ref.Des.
50
270
41
0.75
7
W0$1
0
TEXT
8
PART_NAME_01
10
1.15286
20
0.6914926667
40
0.49
1
UZ2
50
270
41
0.75
7
W0$1
0
TEXT
8
LABEL_INFO
10
1.253116
20
2.39437
40
0.49
1
0 486000000 0 0 0 1
50
270
41
0.75
7
W0$1
0
TEXT
8
LABEL_ATTRIBUTE
10
1.253116
20
2.39437
40
0.49
1
Comment
50
270
41
0.75
7
W0$1
0
TEXT
8
ATTRIBUTE_126
10
1.253116
20
2.39437
40
0.49
1
AN48841B
50
270
41
0.75
7
W0$1
0
TEXT
8
LABEL_INFO
10
-3.7465
20
0.8001
40
1.0668
1
0 486000000 0 0 0 0
50
270
41
0.75
7
W0$254
0
TEXT
8
LABEL_ATTRIBUTE
10
-3.7465
20
0.8001
40
1.0668
1
Comment
50
270
41
0.75
7
W0$254
0
TEXT
8
ATTRIBUTE_126
10
-3.7465
20
0.8001
40
1.0668
1
AN48841B
50
270
41
0.75
7
W0$254
0
TEXT
8
PART_TYPE_TOP
10
-3.7465
20
-0.7239
40
1.0668
1
AN48841B
50
270
41
0.75
7
W0$254
0
TEXT
8
PART_INFO
10
-3.7465
20
-2.2479
40
1.0668
1
000000
50
270
41
0.75
7
W0$254
0
TEXT
8
PART_PTS
10
-3.7465
20
-3.7719
40
1.0668
1
2 4 5 
50
270
41
0.75
7
W0$254
0
ENDBLK
0
BLOCK
2
PART_TOP_55
8
0
10
0
20
0
3
PART_TOP_55
70
64
0
INSERT
2
SYM_TOP_2
8
0
10
0
20
0
0
INSERT
2
PKG_0
8
0
10
0
20
0
0
TEXT
8
LABEL_INFO
10
-0.160278
20
-0.5733993333
40
0.49
1
0 0 0 0 0 1
41
0.75
7
W0$1
0
TEXT
8
LABEL_ATTRIBUTE
10
-0.160278
20
-0.5733993333
40
0.49
1
Ref.Des.
41
0.75
7
W0$1
0
TEXT
8
PART_NAME_01
10
-0.160278
20
-0.5733993333
40
0.49
1
UZ3
41
0.75
7
W0$1
0
TEXT
8
LABEL_INFO
10
-0.997656
20
1.1150926667
40
0.49
1
0 0 0 0 0 1
41
0.75
7
W0$1
0
TEXT
8
LABEL_ATTRIBUTE
10
-0.997656
20
1.1150926667
40
0.49
1
Comment
41
0.75
7
W0$1
0
TEXT
8
ATTRIBUTE_126
10
-0.997656
20
1.1150926667
40
0.49
1
AN48841B
41
0.75
7
W0$1
0
TEXT
8
LABEL_INFO
10
-0.8001
20
-3.7465
40
1.0668
1
0 0 0 0 0 0
41
0.75
7
W0$254
0
TEXT
8
LABEL_ATTRIBUTE
10
-0.8001
20
-3.7465
40
1.0668
1
Comment
41
0.75
7
W0$254
0
TEXT
8
ATTRIBUTE_126
10
-0.8001
20
-3.7465
40
1.0668
1
AN48841B
41
0.75
7
W0$254
0
TEXT
8
PART_TYPE_TOP
10
-0.8001
20
-5.2705
40
1.0668
1
AN48841B
41
0.75
7
W0$254
0
TEXT
8
PART_INFO
10
-0.8001
20
-6.7945
40
1.0668
1
000000
41
0.75
7
W0$254
0
TEXT
8
PART_PTS
10
-0.8001
20
-8.3185
40
1.0668
1
2 4 5 
41
0.75
7
W0$254
0
ENDBLK
0
BLOCK
2
PART_TOP_56
8
0
10
0
20
0
3
PART_TOP_56
70
64
0
INSERT
2
SYM_TOP_3
8
0
10
0
20
0
0
INSERT
2
PKG_1
8
0
10
0
20
0
0
TEXT
8
LABEL_INFO
10
-0.4979606667
20
0.5922026667
40
0.49
1
0 486000000 0 0 0 1
50
270
41
0.75
7
W0$1
0
TEXT
8
LABEL_ATTRIBUTE
10
-0.4979606667
20
0.5922026667
40
0.49
1
Ref.Des.
50
270
41
0.75
7
W0$1
0
TEXT
8
PART_NAME_01
10
-0.4979606667
20
0.5922026667
40
0.49
1
KEY1
50
270
41
0.75
7
W0$1
0
TEXT
8
LABEL_INFO
10
-0.26643
20
1.4586913333
40
0.49
1
0 486000000 0 0 0 1
50
270
41
0.75
7
W0$1
0
TEXT
8
LABEL_ATTRIBUTE
10
-0.26643
20
1.4586913333
40
0.49
1
Comment
50
270
41
0.75
7
W0$1
0
TEXT
8
ATTRIBUTE_126
10
-0.26643
20
1.4586913333
40
0.49
1
TS-1187AB
50
270
41
0.75
7
W0$1
0
TEXT
8
LABEL_INFO
10
-4.6101
20
2.7051
40
1.0668
1
0 486000000 0 0 0 0
50
270
41
0.75
7
W0$254
0
TEXT
8
LABEL_ATTRIBUTE
10
-4.6101
20
2.7051
40
1.0668
1
Comment
50
270
41
0.75
7
W0$254
0
TEXT
8
ATTRIBUTE_126
10
-4.6101
20
2.7051
40
1.0668
1
TS-1187AB
50
270
41
0.75
7
W0$254
0
TEXT
8
PART_TYPE_TOP
10
-4.6101
20
1.1811
40
1.0668
1
TS-1187AB
50
270
41
0.75
7
W0$254
0
TEXT
8
PART_INFO
10
-4.6101
20
-0.3429
40
1.0668
1
000000
50
270
41
0.75
7
W0$254
0
TEXT
8
PART_PTS
10
-4.6101
20
-1.8669
40
1.0668
1
1 2 3 
50
270
41
0.75
7
W0$254
0
ENDBLK
0
BLOCK
2
PART_TOP_57
8
0
10
0
20
0
3
PART_TOP_57
70
64
0
INSERT
2
SYM_TOP_36
8
0
10
0
20
0
0
INSERT
2
PKG_3
8
0
10
0
20
0
0
TEXT
8
LABEL_INFO
10
-0.5078813333
20
0.905974
40
0.49
1
0 486000000 0 0 0 1
50
270
41
0.75
7
W0$1
0
TEXT
8
LABEL_ATTRIBUTE
10
-0.5078813333
20
0.905974
40
0.49
1
Ref.Des.
50
270
41
0.75
7
W0$1
0
TEXT
8
PART_NAME_01
10
-0.5078813333
20
0.905974
40
0.49
1
U6
50
270
41
0.75
7
W0$1
0
TEXT
8
LABEL_INFO
10
-12.1510966667
20
-0.2134973333
40
0.889
1
0 0 0 0 0 1
41
0.75
7
W0$127
0
TEXT
8
LABEL_ATTRIBUTE
10
-12.1510966667
20
-0.2134973333
40
0.889
1
Comment
41
0.75
7
W0$127
0
TEXT
8
ATTRIBUTE_126
10
-12.1510966667
20
-0.2134973333
40
0.889
1
15PIN_2.54
41
0.75
7
W0$127
0
TEXT
8
PART_TYPE_TOP
10
-12.1510966667
20
-1.4834973333
40
0.889
1
13PIN_2.54
41
0.75
7
W0$127
0
TEXT
8
PART_INFO
10
-12.1510966667
20
-2.7534973333
40
0.889
1
000001
41
0.75
7
W0$127
0
TEXT
8
PART_PTS
10
-12.1510966667
20
-4.0234973333
40
0.889
1
1 2 3 4 5 6 7 8 9 10 11 12 13 
41
0.75
7
W0$127
0
ENDBLK
0
BLOCK
2
SYM_TOP_4
8
0
10
0
20
0
3
SYM_TOP_4
70
64
0
TEXT
8
SYM_NAME
10
0
20
0
40
1.778
1
BALL4P--9.1X9.1X6.04MM
41
0.75
0
TEXT
8
SYM_PART_NAME_126
10
-5.5135773333
20
6.086602
40
0.889
1
 
41
0.75
7
W0$127R0
0
TEXT
8
SYM_ATTRIBUTE_126
10
-5.5135773333
20
4.816602
40
0.889
1
Comment
41
0.75
7
W0$127R0
0
INSERT
2
PART_BODY_TOP_27
8
0
10
0
20
0
0
INSERT
2
STK_TOP_57
8
0
10
-3.8999153333
20
0
0
TEXT
8
SYM_TERMINAL
10
0
20
-3.048
40
1.778
1
1
0
INSERT
2
STK_TOP_58
8
0
10
0
20
-3.8999153333
0
TEXT
8
SYM_TERMINAL
10
0
20
-6.096
40
1.778
1
2
0
INSERT
2
STK_TOP_57
8
0
10
3.8999153333
20
0
0
TEXT
8
SYM_TERMINAL
10
0
20
-9.144
40
1.778
1
3
0
INSERT
2
STK_TOP_58
8
0
10
0
20
3.8999153333
0
TEXT
8
SYM_TERMINAL
10
0
20
-12.192
40
1.778
1
4
0
ENDBLK
0
BLOCK
2
PKG_2
8
0
10
0
20
0
3
PKG_2
70
64
0
TEXT
8
PKG_INFO
10
0
20
0
40
1.778
1
*SYM:= 4
0
TEXT
8
PKG_INFO
10
0
20
-3.048
40
1.778
1
*PKG:= 0 TRACK_BALL UND
0
TEXT
8
PKG_INFO
10
0
20
-6.096
40
1.778
1
*GATE:=0
0
TEXT
8
PKG_INFO
10
0
20
-9.144
40
1.778
1
*GATEPIN:= 0 5 1 <>
0
TEXT
8
PKG_INFO
10
0
20
-12.192
40
1.778
1
*GATEPIN:= 0 5 2 <>
0
TEXT
8
PKG_INFO
10
0
20
-15.24
40
1.778
1
*GATEPIN:= 0 5 3 <>
0
TEXT
8
PKG_INFO
10
0
20
-18.288
40
1.778
1
*GATEPIN:= 0 5 4 <>
0
ENDBLK
0
BLOCK
2
SYM_TOP_8
8
0
10
0
20
0
3
SYM_TOP_8
70
64
0
TEXT
8
SYM_NAME
10
0
20
0
40
1.778
1
13PINZMBR
41
0.75
0
TEXT
8
SYM_PART_NAME_126
10
-11.4668926667
20
5.6401093333
40
0.889
1
 
41
0.75
7
W0$127R0
0
TEXT
8
SYM_ATTRIBUTE_126
10
-11.4668926667
20
4.3701093333
40
0.889
1
Comment
41
0.75
7
W0$127R0
0
INSERT
2
PART_BODY_TOP_7
8
0
10
0
20
0
0
INSERT
2
STK_TOP_30
8
0
10
-6.7400293333
20
3.53991
0
TEXT
8
SYM_TERMINAL
10
0
20
-3.048
40
1.778
1
1
0
INSERT
2
STK_TOP_31
8
0
10
-7.0400033333
20
0.4400946667
0
TEXT
8
SYM_TERMINAL
10
0
20
-6.096
40
1.778
1
2
0
INSERT
2
STK_TOP_30
8
0
10
-7.3399773333
20
3.53991
0
TEXT
8
SYM_TERMINAL
10
0
20
-9.144
40
1.778
1
3
0
INSERT
2
STK_TOP_31
8
0
10
-7.6399513333
20
0.4400946667
0
TEXT
8
SYM_TERMINAL
10
0
20
-12.192
40
1.778
1
4
0
INSERT
2
STK_TOP_30
8
0
10
-7.9399253333
20
3.53991
0
TEXT
8
SYM_TERMINAL
10
0
20
-15.24
40
1.778
1
5
0
INSERT
2
STK_TOP_31
8
0
10
-8.2398993333
20
0.4400946667
0
TEXT
8
SYM_TERMINAL
10
0
20
-18.288
40
1.778
1
6
0
INSERT
2
STK_TOP_30
8
0
10
-8.5398733333
20
3.53991
0
TEXT
8
SYM_TERMINAL
10
0
20
-21.336
40
1.778
1
7
0
INSERT
2
STK_TOP_31
8
0
10
-8.8398466667
20
0.4400946667
0
TEXT
8
SYM_TERMINAL
10
0
20
-24.384
40
1.778
1
8
0
INSERT
2
STK_TOP_30
8
0
10
-9.1398206667
20
3.53991
0
TEXT
8
SYM_TERMINAL
10
0
20
-27.432
40
1.778
1
9
0
INSERT
2
STK_TOP_31
8
0
10
-9.4400486667
20
0.4400946667
0
TEXT
8
SYM_TERMINAL
10
0
20
-30.48
40
1.778
1
10
0
INSERT
2
STK_TOP_30
8
0
10
-9.7400226667
20
3.53991
0
TEXT
8
SYM_TERMINAL
10
0
20
-33.528
40
1.778
1
11
0
INSERT
2
STK_TOP_31
8
0
10
-10.0399966667
20
0.4400946667
0
TEXT
8
SYM_TERMINAL
10
0
20
-36.576
40
1.778
1
12
0
INSERT
2
STK_TOP_30
8
0
10
-10.3399706667
20
3.53991
0
TEXT
8
SYM_TERMINAL
10
0
20
-39.624
40
1.778
1
13
0
INSERT
2
STK_TOP_32
8
0
10
-6.0900433333
20
3.189898
0
TEXT
8
SYM_TERMINAL
10
0
20
-42.672
40
1.778
1
14
0
INSERT
2
STK_TOP_32
8
0
10
-10.9899566667
20
3.189898
0
TEXT
8
SYM_TERMINAL
10
0
20
-45.72
40
1.778
1
15
0
ENDBLK
0
BLOCK
2
PKG_6
8
0
10
0
20
0
3
PKG_6
70
64
0
TEXT
8
PKG_INFO
10
0
20
0
40
1.778
1
*SYM:= 8
0
TEXT
8
PKG_INFO
10
0
20
-3.048
40
1.778
1
*PKG:= 0 H_HEADER_13P_6X7 UND
0
TEXT
8
PKG_INFO
10
0
20
-6.096
40
1.778
1
*GATE:=0
0
TEXT
8
PKG_INFO
10
0
20
-9.144
40
1.778
1
*GATEPIN:= 0 5 1 <>
0
TEXT
8
PKG_INFO
10
0
20
-12.192
40
1.778
1
*GATEPIN:= 0 5 2 <>
0
TEXT
8
PKG_INFO
10
0
20
-15.24
40
1.778
1
*GATEPIN:= 0 5 3 <>
0
TEXT
8
PKG_INFO
10
0
20
-18.288
40
1.778
1
*GATEPIN:= 0 5 4 <>
0
TEXT
8
PKG_INFO
10
0
20
-21.336
40
1.778
1
*GATEPIN:= 0 5 5 <>
0
TEXT
8
PKG_INFO
10
0
20
-24.384
40
1.778
1
*GATEPIN:= 0 5 6 <>
0
TEXT
8
PKG_INFO
10
0
20
-27.432
40
1.778
1
*GATEPIN:= 0 5 7 <>
0
TEXT
8
PKG_INFO
10
0
20
-30.48
40
1.778
1
*GATEPIN:= 0 5 8 <>
0
TEXT
8
PKG_INFO
10
0
20
-33.528
40
1.778
1
*GATEPIN:= 0 5 9 <>
0
TEXT
8
PKG_INFO
10
0
20
-36.576
40
1.778
1
*GATEPIN:= 0 5 10 <>
0
TEXT
8
PKG_INFO
10
0
20
-39.624
40
1.778
1
*GATEPIN:= 0 5 11 <>
0
TEXT
8
PKG_INFO
10
0
20
-42.672
40
1.778
1
*GATEPIN:= 0 5 12 <>
0
TEXT
8
PKG_INFO
10
0
20
-45.72
40
1.778
1
*GATEPIN:= 0 5 13 <>
0
TEXT
8
PKG_INFO
10
0
20
-48.768
40
1.778
1
*GATEPIN:= 0 5 14 <>
0
TEXT
8
PKG_INFO
10
0
20
-51.816
40
1.778
1
*GATEPIN:= 0 5 15 <>
0
ENDBLK
0
BLOCK
2
SYM_TOP_36
8
0
10
0
20
0
3
SYM_TOP_36
70
64
0
TEXT
8
SYM_NAME
10
0
20
0
40
1.778
1
13PIN_2.54-1
41
0.75
0
TEXT
8
SYM_ATTRIBUTE_126
10
-17.907
20
4.140202
40
0.889
1
Comment
41
0.75
7
W0$127R0
0
TEXT
8
SYM_PART_NAME_126
10
-17.907
20
5.410202
40
0.889
1
 
41
0.75
7
W0$127R0
0
INSERT
2
PART_BODY_TOP_45
8
0
10
0
20
0
0
INSERT
2
STK_TOP_10
8
0
10
-15.24
20
0
0
TEXT
8
SYM_TERMINAL
10
0
20
-3.048
40
1.778
1
1
0
INSERT
2
STK_TOP_10
8
0
10
-12.7000006667
20
0
0
TEXT
8
SYM_TERMINAL
10
0
20
-6.096
40
1.778
1
2
0
INSERT
2
STK_TOP_10
8
0
10
-10.1599986667
20
0
0
TEXT
8
SYM_TERMINAL
10
0
20
-9.144
40
1.778
1
3
0
INSERT
2
STK_TOP_10
8
0
10
-7.62
20
0
0
TEXT
8
SYM_TERMINAL
10
0
20
-12.192
40
1.778
1
4
0
INSERT
2
STK_TOP_10
8
0
10
-5.08
20
0
0
TEXT
8
SYM_TERMINAL
10
0
20
-15.24
40
1.778
1
5
0
INSERT
2
STK_TOP_10
8
0
10
-2.54
20
0
0
TEXT
8
SYM_TERMINAL
10
0
20
-18.288
40
1.778
1
6
0
INSERT
2
STK_TOP_10
8
0
10
0
20
0
0
TEXT
8
SYM_TERMINAL
10
0
20
-21.336
40
1.778
1
7
0
INSERT
2
STK_TOP_10
8
0
10
2.54
20
0
0
TEXT
8
SYM_TERMINAL
10
0
20
-24.384
40
1.778
1
8
0
INSERT
2
STK_TOP_10
8
0
10
5.08
20
0
0
TEXT
8
SYM_TERMINAL
10
0
20
-27.432
40
1.778
1
9
0
INSERT
2
STK_TOP_10
8
0
10
7.62
20
0
0
TEXT
8
SYM_TERMINAL
10
0
20
-30.48
40
1.778
1
10
0
INSERT
2
STK_TOP_10
8
0
10
10.16
20
0
0
TEXT
8
SYM_TERMINAL
10
0
20
-33.528
40
1.778
1
11
0
INSERT
2
STK_TOP_10
8
0
10
12.7
20
0
0
TEXT
8
SYM_TERMINAL
10
0
20
-36.576
40
1.778
1
12
0
INSERT
2
STK_TOP_10
8
0
10
15.24
20
0
0
TEXT
8
SYM_TERMINAL
10
0
20
-39.624
40
1.778
1
13
0
ENDBLK
0
BLOCK
2
PKG_3
8
0
10
0
20
0
3
PKG_3
70
64
0
TEXT
8
PKG_INFO
10
0
20
0
40
1.778
1
*SYM:= 5 36
0
TEXT
8
PKG_INFO
10
0
20
-3.048
40
1.778
1
*PKG:= 0 13PIN_2.54 TTL
0
TEXT
8
PKG_INFO
10
0
20
-6.096
40
1.778
1
*GATE:=0
0
TEXT
8
PKG_INFO
10
0
20
-9.144
40
1.778
1
*GATEPIN:= 0 5 1 1
0
TEXT
8
PKG_INFO
10
0
20
-12.192
40
1.778
1
*GATEPIN:= 0 5 2 2
0
TEXT
8
PKG_INFO
10
0
20
-15.24
40
1.778
1
*GATEPIN:= 0 5 3 3
0
TEXT
8
PKG_INFO
10
0
20
-18.288
40
1.778
1
*GATEPIN:= 0 5 4 4
0
TEXT
8
PKG_INFO
10
0
20
-21.336
40
1.778
1
*GATEPIN:= 0 5 5 5
0
TEXT
8
PKG_INFO
10
0
20
-24.384
40
1.778
1
*GATEPIN:= 0 5 6 6
0
TEXT
8
PKG_INFO
10
0
20
-27.432
40
1.778
1
*GATEPIN:= 0 5 7 7
0
TEXT
8
PKG_INFO
10
0
20
-30.48
40
1.778
1
*GATEPIN:= 0 5 8 8
0
TEXT
8
PKG_INFO
10
0
20
-33.528
40
1.778
1
*GATEPIN:= 0 5 9 9
0
TEXT
8
PKG_INFO
10
0
20
-36.576
40
1.778
1
*GATEPIN:= 0 5 10 10
0
TEXT
8
PKG_INFO
10
0
20
-39.624
40
1.778
1
*GATEPIN:= 0 5 11 11
0
TEXT
8
PKG_INFO
10
0
20
-42.672
40
1.778
1
*GATEPIN:= 0 5 12 12
0
TEXT
8
PKG_INFO
10
0
20
-45.72
40
1.778
1
*GATEPIN:= 0 5 13 13
0
ENDBLK
0
BLOCK
2
SYM_TOP_26
8
0
10
0
20
0
3
SYM_TOP_26
70
64
0
TEXT
8
SYM_NAME
10
0
20
0
40
1.778
1
R0603
41
0.75
0
TEXT
8
SYM_PART_NAME_01
10
-1.4986
20
2.1971
40
0.889
1
 
41
0.75
7
W0$127R0
0
TEXT
8
SYM_ATTRIBUTE_01
10
-1.4986
20
0.9271
40
0.889
1
Comment
41
0.75
7
W0$127R0
0
INSERT
2
PART_BODY_TOP_25
8
0
10
0
20
0
0
INSERT
2
STK_TOP_43
8
0
10
-0.8
20
0
0
TEXT
8
SYM_TERMINAL
10
0
20
-3.048
40
1.778
1
1
0
INSERT
2
STK_TOP_43
8
0
10
0.8
20
0
0
TEXT
8
SYM_TERMINAL
10
0
20
-6.096
40
1.778
1
2
0
ENDBLK
0
BLOCK
2
PKG_24
8
0
10
0
20
0
3
PKG_24
70
64
0
TEXT
8
PKG_INFO
10
0
20
0
40
1.778
1
*SYM:= 26
0
TEXT
8
PKG_INFO
10
0
20
-3.048
40
1.778
1
*PKG:= 0 R_2 RES
0
TEXT
8
PKG_INFO
10
0
20
-6.096
40
1.778
1
*GATE:=0
0
TEXT
8
PKG_INFO
10
0
20
-9.144
40
1.778
1
*GATEPIN:= 0 5 1 <>
0
TEXT
8
PKG_INFO
10
0
20
-12.192
40
1.778
1
*GATEPIN:= 1 5 2 <>
0
ENDBLK
0
BLOCK
2
SYM_TOP_2
8
0
10
0
20
0
3
SYM_TOP_2
70
64
0
TEXT
8
SYM_NAME
10
0
20
0
40
1.778
1
SMINI--5DE
41
0.75
0
TEXT
8
SYM_PART_NAME_126
10
-1.0634973333
20
2.8232093333
40
0.889
1
 
41
0.75
7
W0$127R0
0
TEXT
8
SYM_ATTRIBUTE_126
10
-1.0634973333
20
1.5532093333
40
0.889
1
Comment
41
0.75
7
W0$127R0
0
INSERT
2
PART_BODY_TOP_1
8
0
10
0
20
0
0
INSERT
2
STK_TOP_4
8
0
10
-0.649986
20
-0.9499593333
0
TEXT
8
SYM_TERMINAL
10
0
20
-3.048
40
1.778
1
1
0
INSERT
2
STK_TOP_4
8
0
10
0
20
-0.9499593333
0
TEXT
8
SYM_TERMINAL
10
0
20
-6.096
40
1.778
1
2
0
INSERT
2
STK_TOP_4
8
0
10
0.649986
20
-0.9499593333
0
TEXT
8
SYM_TERMINAL
10
0
20
-9.144
40
1.778
1
3
0
INSERT
2
STK_TOP_4
8
0
10
0.649986
20
0.9499593333
0
TEXT
8
SYM_TERMINAL
10
0
20
-12.192
40
1.778
1
4
0
INSERT
2
STK_TOP_4
8
0
10
-0.649986
20
0.9499593333
0
TEXT
8
SYM_TERMINAL
10
0
20
-15.24
40
1.778
1
5
0
ENDBLK
0
BLOCK
2
PKG_0
8
0
10
0
20
0
3
PKG_0
70
64
0
TEXT
8
PKG_INFO
10
0
20
0
40
1.778
1
*SYM:= 2
0
TEXT
8
PKG_INFO
10
0
20
-3.048
40
1.778
1
*PKG:= 0 AN48841B UND
0
TEXT
8
PKG_INFO
10
0
20
-6.096
40
1.778
1
*GATE:=0
0
TEXT
8
PKG_INFO
10
0
20
-9.144
40
1.778
1
*GATEPIN:= 0 5 1 <>
0
TEXT
8
PKG_INFO
10
0
20
-12.192
40
1.778
1
*GATEPIN:= 0 5 2 <>
0
TEXT
8
PKG_INFO
10
0
20
-15.24
40
1.778
1
*GATEPIN:= 0 5 3 <>
0
TEXT
8
PKG_INFO
10
0
20
-18.288
40
1.778
1
*GATEPIN:= 0 5 4 <>
0
TEXT
8
PKG_INFO
10
0
20
-21.336
40
1.778
1
*GATEPIN:= 0 5 5 <>
0
ENDBLK
0
BLOCK
2
SYM_TOP_3
8
0
10
0
20
0
3
SYM_TOP_3
70
64
0
TEXT
8
SYM_NAME
10
0
20
0
40
1.778
1
SW4--4.5X4.5X0.5MM
41
0.75
0
TEXT
8
SYM_PART_NAME_126
10
-2.8498793333
20
3.7866313333
40
0.889
1
 
41
0.75
7
W0$127R0
0
TEXT
8
SYM_ATTRIBUTE_126
10
-2.8498793333
20
2.5166313333
40
0.889
1
Comment
41
0.75
7
W0$127R0
0
INSERT
2
PART_BODY_TOP_2
8
0
10
0
20
0
0
INSERT
2
STK_TOP_5
8
0
10
-2.2499313333
20
1.75006
0
TEXT
8
SYM_TERMINAL
10
0
20
-3.048
40
1.778
1
1
0
INSERT
2
STK_TOP_5
8
0
10
2.2499313333
20
1.75006
0
TEXT
8
SYM_TERMINAL
10
0
20
-6.096
40
1.778
1
2
0
INSERT
2
STK_TOP_5
8
0
10
-2.2499313333
20
-1.7500593333
0
TEXT
8
SYM_TERMINAL
10
0
20
-9.144
40
1.778
1
3
0
INSERT
2
STK_TOP_5
8
0
10
2.2499313333
20
-1.7500593333
0
TEXT
8
SYM_TERMINAL
10
0
20
-12.192
40
1.778
1
4
0
ENDBLK
0
BLOCK
2
PKG_1
8
0
10
0
20
0
3
PKG_1
70
64
0
TEXT
8
PKG_INFO
10
0
20
0
40
1.778
1
*SYM:= 3
0
TEXT
8
PKG_INFO
10
0
20
-3.048
40
1.778
1
*PKG:= 0 TS-1187AB UND
0
TEXT
8
PKG_INFO
10
0
20
-6.096
40
1.778
1
*GATE:=0
0
TEXT
8
PKG_INFO
10
0
20
-9.144
40
1.778
1
*GATEPIN:= 0 5 1 <>
0
TEXT
8
PKG_INFO
10
0
20
-12.192
40
1.778
1
*GATEPIN:= 0 5 2 <>
0
TEXT
8
PKG_INFO
10
0
20
-15.24
40
1.778
1
*GATEPIN:= 0 5 3 <>
0
TEXT
8
PKG_INFO
10
0
20
-18.288
40
1.778
1
*GATEPIN:= 0 5 4 <>
0
ENDBLK
0
BLOCK
2
PART_BODY_TOP_27
8
0
10
0
20
0
3
PART_BODY_TOP_27
70
64
0
POLYLINE
8
PART_TOP_2DLINE_117
66
1
40
0.127
41
0.127
70
1
0
VERTEX
8
PART_TOP_2DLINE_117
10
4.649978
20
2.1998933333
0
VERTEX
8
PART_TOP_2DLINE_117
10
4.649978
20
3.0500313333
0
VERTEX
8
PART_TOP_2DLINE_117
10
3.150108
20
4.549902
0
VERTEX
8
PART_TOP_2DLINE_117
10
-3.1501073333
20
4.549902
0
VERTEX
8
PART_TOP_2DLINE_117
10
-4.6499773333
20
3.0500313333
0
VERTEX
8
PART_TOP_2DLINE_117
10
-4.6499773333
20
2.1998933333
0
VERTEX
8
PART_TOP_2DLINE_117
10
-5.4500773333
20
2.1998933333
0
VERTEX
8
PART_TOP_2DLINE_117
10
-5.4500773333
20
0.9999973333
0
VERTEX
8
PART_TOP_2DLINE_117
10
-4.6499773333
20
0.9999973333
0
VERTEX
8
PART_TOP_2DLINE_117
10
-4.6499773333
20
-0.9999973333
0
VERTEX
8
PART_TOP_2DLINE_117
10
-5.4500773333
20
-0.9999973333
0
VERTEX
8
PART_TOP_2DLINE_117
10
-5.4500773333
20
-2.1998933333
0
VERTEX
8
PART_TOP_2DLINE_117
10
-4.6499773333
20
-2.1998933333
0
VERTEX
8
PART_TOP_2DLINE_117
10
-4.6499773333
20
-3.0500313333
0
VERTEX
8
PART_TOP_2DLINE_117
10
-3.1501073333
20
-4.549902
0
VERTEX
8
PART_TOP_2DLINE_117
10
3.150108
20
-4.549902
0
VERTEX
8
PART_TOP_2DLINE_117
10
4.649978
20
-3.0500313333
0
VERTEX
8
PART_TOP_2DLINE_117
10
4.649978
20
-2.1998933333
0
VERTEX
8
PART_TOP_2DLINE_117
10
5.450078
20
-2.1998933333
0
VERTEX
8
PART_TOP_2DLINE_117
10
5.450078
20
-0.9999973333
0
VERTEX
8
PART_TOP_2DLINE_117
10
4.649978
20
-0.9999973333
0
VERTEX
8
PART_TOP_2DLINE_117
10
4.649978
20
0.9999973333
0
VERTEX
8
PART_TOP_2DLINE_117
10
5.450078
20
0.9999973333
0
VERTEX
8
PART_TOP_2DLINE_117
10
5.450078
20
2.1998933333
0
SEQEND
0
INSERT
2
SMOOTH_0$127
8
PART_TOP_2DLINE_117
10
4.649978
20
2.1998933333
0
INSERT
2
SMOOTH_0$127
8
PART_TOP_2DLINE_117
10
4.649978
20
3.0500313333
0
INSERT
2
SMOOTH_0$127
8
PART_TOP_2DLINE_117
10
3.150108
20
4.549902
0
INSERT
2
SMOOTH_0$127
8
PART_TOP_2DLINE_117
10
-3.1501073333
20
4.549902
0
INSERT
2
SMOOTH_0$127
8
PART_TOP_2DLINE_117
10
-4.6499773333
20
3.0500313333
0
INSERT
2
SMOOTH_0$127
8
PART_TOP_2DLINE_117
10
-4.6499773333
20
2.1998933333
0
INSERT
2
SMOOTH_0$127
8
PART_TOP_2DLINE_117
10
-5.4500773333
20
2.1998933333
0
INSERT
2
SMOOTH_0$127
8
PART_TOP_2DLINE_117
10
-5.4500773333
20
0.9999973333
0
INSERT
2
SMOOTH_0$127
8
PART_TOP_2DLINE_117
10
-4.6499773333
20
0.9999973333
0
INSERT
2
SMOOTH_0$127
8
PART_TOP_2DLINE_117
10
-4.6499773333
20
-0.9999973333
0
INSERT
2
SMOOTH_0$127
8
PART_TOP_2DLINE_117
10
-5.4500773333
20
-0.9999973333
0
INSERT
2
SMOOTH_0$127
8
PART_TOP_2DLINE_117
10
-5.4500773333
20
-2.1998933333
0
INSERT
2
SMOOTH_0$127
8
PART_TOP_2DLINE_117
10
-4.6499773333
20
-2.1998933333
0
INSERT
2
SMOOTH_0$127
8
PART_TOP_2DLINE_117
10
-4.6499773333
20
-3.0500313333
0
INSERT
2
SMOOTH_0$127
8
PART_TOP_2DLINE_117
10
-3.1501073333
20
-4.549902
0
INSERT
2
SMOOTH_0$127
8
PART_TOP_2DLINE_117
10
3.150108
20
-4.549902
0
INSERT
2
SMOOTH_0$127
8
PART_TOP_2DLINE_117
10
4.649978
20
-3.0500313333
0
INSERT
2
SMOOTH_0$127
8
PART_TOP_2DLINE_117
10
4.649978
20
-2.1998933333
0
INSERT
2
SMOOTH_0$127
8
PART_TOP_2DLINE_117
10
5.450078
20
-2.1998933333
0
INSERT
2
SMOOTH_0$127
8
PART_TOP_2DLINE_117
10
5.450078
20
-0.9999973333
0
INSERT
2
SMOOTH_0$127
8
PART_TOP_2DLINE_117
10
4.649978
20
-0.9999973333
0
INSERT
2
SMOOTH_0$127
8
PART_TOP_2DLINE_117
10
4.649978
20
0.9999973333
0
INSERT
2
SMOOTH_0$127
8
PART_TOP_2DLINE_117
10
5.450078
20
0.9999973333
0
INSERT
2
SMOOTH_0$127
8
PART_TOP_2DLINE_117
10
5.450078
20
2.1998933333
0
ENDBLK
0
BLOCK
2
STK_TOP_57
8
0
10
0
20
0
3
STK_TOP_57
70
64
0
INSERT
2
DRIL_HOLE_0
8
DRIL_PLTE_THRU_01
10
0
20
0
0
INSERT
2
DRIL_HOLE_0
8
DRIL_PLTE_THRU_02
10
0
20
0
0
INSERT
2
PAD_0
8
PADS_INNER
10
0
20
0
0
INSERT
2
PAD_0
8
PADS_BOT
10
0
20
0
0
INSERT
2
PAD_1
8
PADS_TOP
10
0
20
0
50
90
0
ENDBLK
0
BLOCK
2
STK_TOP_58
8
0
10
0
20
0
3
STK_TOP_58
70
64
0
INSERT
2
DRIL_HOLE_0$9
8
DRIL_PLTE_THRU_01
10
0
20
0
0
INSERT
2
DRIL_HOLE_0$9
8
DRIL_PLTE_THRU_02
10
0
20
0
0
INSERT
2
PAD_0
8
PADS_INNER
10
0
20
0
0
INSERT
2
PAD_0
8
PADS_BOT
10
0
20
0
0
INSERT
2
PAD_1
8
PADS_TOP
10
0
20
0
0
ENDBLK
0
BLOCK
2
PART_BODY_TOP_7
8
0
10
0
20
0
3
PART_BODY_TOP_7
70
64
0
POLYLINE
8
PART_TOP_2DLINE_126
66
1
40
0.254
41
0.254
0
VERTEX
8
PART_TOP_2DLINE_126
10
-11.3398926667
20
3.840062
0
VERTEX
8
PART_TOP_2DLINE_126
10
-11.3398926667
20
4.0399093333
0
VERTEX
8
PART_TOP_2DLINE_126
10
-5.73993
20
4.0399093333
0
VERTEX
8
PART_TOP_2DLINE_126
10
-5.7400566667
20
3.8401126667
0
VERTEX
8
PART_TOP_2DLINE_126
10
-5.7400566667
20
3.9875853333
0
SEQEND
0
INSERT
2
SMOOTH_0$254
8
PART_TOP_2DLINE_126
10
-11.3398926667
20
3.840062
0
INSERT
2
SMOOTH_0$254
8
PART_TOP_2DLINE_126
10
-11.3398926667
20
4.0399093333
0
INSERT
2
SMOOTH_0$254
8
PART_TOP_2DLINE_126
10
-5.73993
20
4.0399093333
0
INSERT
2
SMOOTH_0$254
8
PART_TOP_2DLINE_126
10
-5.7400566667
20
3.8401126667
0
INSERT
2
SMOOTH_0$254
8
PART_TOP_2DLINE_126
10
-5.7400566667
20
3.9875853333
0
POLYLINE
8
PART_TOP_2DLINE_126
66
1
40
0.254
41
0.254
0
VERTEX
8
PART_TOP_2DLINE_126
10
-11.3398926667
20
2.539912
0
VERTEX
8
PART_TOP_2DLINE_126
10
-11.3398926667
20
0.48993
0
VERTEX
8
PART_TOP_2DLINE_126
10
-10.4210726667
20
0.48993
0
SEQEND
0
INSERT
2
SMOOTH_0$254
8
PART_TOP_2DLINE_126
10
-11.3398926667
20
2.539912
0
INSERT
2
SMOOTH_0$254
8
PART_TOP_2DLINE_126
10
-11.3398926667
20
0.48993
0
INSERT
2
SMOOTH_0$254
8
PART_TOP_2DLINE_126
10
-10.4210726667
20
0.48993
0
POLYLINE
8
PART_TOP_2DLINE_126
66
1
40
0.254
41
0.254
0
VERTEX
8
PART_TOP_2DLINE_126
10
-5.7400566667
20
2.5398613333
0
VERTEX
8
PART_TOP_2DLINE_126
10
-5.7400566667
20
0.48993
0
VERTEX
8
PART_TOP_2DLINE_126
10
-6.6588
20
0.48993
0
SEQEND
0
INSERT
2
SMOOTH_0$254
8
PART_TOP_2DLINE_126
10
-5.7400566667
20
2.5398613333
0
INSERT
2
SMOOTH_0$254
8
PART_TOP_2DLINE_126
10
-5.7400566667
20
0.48993
0
INSERT
2
SMOOTH_0$254
8
PART_TOP_2DLINE_126
10
-6.6588
20
0.48993
0
POLYLINE
8
PART_TOP_2DLINE_126
66
1
40
0.2
41
0.2
70
1
0
VERTEX
8
PART_TOP_2DLINE_126
10
0
20
0
0
VERTEX
8
PART_TOP_2DLINE_126
10
-32.1
20
0
0
VERTEX
8
PART_TOP_2DLINE_126
10
-32.1
20
13.17
0
VERTEX
8
PART_TOP_2DLINE_126
10
0
20
13.17
0
SEQEND
0
INSERT
2
SMOOTH_0$2
8
PART_TOP_2DLINE_126
10
0
20
0
0
INSERT
2
SMOOTH_0$2
8
PART_TOP_2DLINE_126
10
-32.1
20
0
0
INSERT
2
SMOOTH_0$2
8
PART_TOP_2DLINE_126
10
-32.1
20
13.17
0
INSERT
2
SMOOTH_0$2
8
PART_TOP_2DLINE_126
10
0
20
13.17
0
ENDBLK
0
BLOCK
2
STK_TOP_30
8
0
10
0
20
0
3
STK_TOP_30
70
64
0
INSERT
2
DRIL_HOLE_0
8
DRIL_PLTE_THRU_01
10
0
20
0
0
INSERT
2
DRIL_HOLE_0
8
DRIL_PLTE_THRU_02
10
0
20
0
0
INSERT
2
PAD_0
8
PADS_INNER
10
0
20
0
0
INSERT
2
PAD_0
8
PADS_BOT
10
0
20
0
0
INSERT
2
PAD_2
8
PADS_TOP
10
0
20
0
50
90
0
ENDBLK
0
BLOCK
2
STK_TOP_31
8
0
10
0
20
0
3
STK_TOP_31
70
64
0
INSERT
2
DRIL_HOLE_0
8
DRIL_PLTE_THRU_01
10
0
20
0
0
INSERT
2
DRIL_HOLE_0
8
DRIL_PLTE_THRU_02
10
0
20
0
0
INSERT
2
PAD_0
8
PADS_INNER
10
0
20
0
0
INSERT
2
PAD_0
8
PADS_BOT
10
0
20
0
0
INSERT
2
PAD_3
8
PADS_TOP
10
0
20
0
50
90
0
ENDBLK
0
BLOCK
2
STK_TOP_32
8
0
10
0
20
0
3
STK_TOP_32
70
64
0
INSERT
2
DRIL_HOLE_0
8
DRIL_PLTE_THRU_01
10
0
20
0
0
INSERT
2
DRIL_HOLE_0
8
DRIL_PLTE_THRU_02
10
0
20
0
0
INSERT
2
PAD_0
8
PADS_INNER
10
0
20
0
0
INSERT
2
PAD_0
8
PADS_BOT
10
0
20
0
0
INSERT
2
PAD_4
8
PADS_TOP
10
0
20
0
50
90
0
ENDBLK
0
BLOCK
2
PART_BODY_TOP_45
8
0
10
0
20
0
3
PART_BODY_TOP_45
70
64
0
ENDBLK
0
BLOCK
2
STK_TOP_10
8
0
10
0
20
0
3
STK_TOP_10
70
64
0
INSERT
2
DRIL_HOLE_0$899998
8
DRIL_PLTE_THRU_01
10
0
20
0
0
INSERT
2
DRIL_HOLE_0$899998
8
DRIL_PLTE_THRU_02
10
0
20
0
0
INSERT
2
PAD_5
8
PADS_INNER
10
0
20
0
50
90
0
INSERT
2
PAD_5
8
PADS_BOT
10
0
20
0
50
90
0
INSERT
2
PAD_6
8
PADS_TOP
10
0
20
0
50
90
0
ENDBLK
0
BLOCK
2
SYM_TOP_5
8
0
10
0
20
0
3
SYM_TOP_5
70
64
0
TEXT
8
SYM_NAME
10
0
20
0
40
1.778
1
13PIN_2.54
41
0.75
0
TEXT
8
SYM_ATTRIBUTE_126
10
-17.907
20
4.140202
40
0.889
1
Comment
41
0.75
7
W0$127R0
0
TEXT
8
SYM_PART_NAME_126
10
-17.907
20
5.410202
40
0.889
1
 
41
0.75
7
W0$127R0
0
INSERT
2
PART_BODY_TOP_4
8
0
10
0
20
0
0
INSERT
2
STK_TOP_10
8
0
10
-15.24
20
0
0
TEXT
8
SYM_TERMINAL
10
0
20
-3.048
40
1.778
1
1
0
INSERT
2
STK_TOP_10
8
0
10
-12.7000006667
20
0
0
TEXT
8
SYM_TERMINAL
10
0
20
-6.096
40
1.778
1
2
0
INSERT
2
STK_TOP_10
8
0
10
-10.1599986667
20
0
0
TEXT
8
SYM_TERMINAL
10
0
20
-9.144
40
1.778
1
3
0
INSERT
2
STK_TOP_10
8
0
10
-7.62
20
0
0
TEXT
8
SYM_TERMINAL
10
0
20
-12.192
40
1.778
1
4
0
INSERT
2
STK_TOP_10
8
0
10
-5.08
20
0
0
TEXT
8
SYM_TERMINAL
10
0
20
-15.24
40
1.778
1
5
0
INSERT
2
STK_TOP_10
8
0
10
-2.54
20
0
0
TEXT
8
SYM_TERMINAL
10
0
20
-18.288
40
1.778
1
6
0
INSERT
2
STK_TOP_10
8
0
10
0
20
0
0
TEXT
8
SYM_TERMINAL
10
0
20
-21.336
40
1.778
1
7
0
INSERT
2
STK_TOP_10
8
0
10
2.54
20
0
0
TEXT
8
SYM_TERMINAL
10
0
20
-24.384
40
1.778
1
8
0
INSERT
2
STK_TOP_10
8
0
10
5.08
20
0
0
TEXT
8
SYM_TERMINAL
10
0
20
-27.432
40
1.778
1
9
0
INSERT
2
STK_TOP_10
8
0
10
7.62
20
0
0
TEXT
8
SYM_TERMINAL
10
0
20
-30.48
40
1.778
1
10
0
INSERT
2
STK_TOP_10
8
0
10
10.16
20
0
0
TEXT
8
SYM_TERMINAL
10
0
20
-33.528
40
1.778
1
11
0
INSERT
2
STK_TOP_10
8
0
10
12.7
20
0
0
TEXT
8
SYM_TERMINAL
10
0
20
-36.576
40
1.778
1
12
0
INSERT
2
STK_TOP_10
8
0
10
15.24
20
0
0
TEXT
8
SYM_TERMINAL
10
0
20
-39.624
40
1.778
1
13
0
ENDBLK
0
BLOCK
2
PART_BODY_TOP_25
8
0
10
0
20
0
3
PART_BODY_TOP_25
70
64
0
POLYLINE
8
PART_TOP_2DLINE_126
66
1
40
0.127
41
0.127
70
1
0
VERTEX
8
PART_TOP_2DLINE_126
10
-1.4351
20
-0.54
0
VERTEX
8
PART_TOP_2DLINE_126
10
-1.4351
20
0.54
0
VERTEX
8
PART_TOP_2DLINE_126
10
1.4605
20
0.54
0
VERTEX
8
PART_TOP_2DLINE_126
10
1.4605
20
-0.54
0
SEQEND
0
INSERT
2
SMOOTH_0$127
8
PART_TOP_2DLINE_126
10
-1.4351
20
-0.54
0
INSERT
2
SMOOTH_0$127
8
PART_TOP_2DLINE_126
10
-1.4351
20
0.54
0
INSERT
2
SMOOTH_0$127
8
PART_TOP_2DLINE_126
10
1.4605
20
0.54
0
INSERT
2
SMOOTH_0$127
8
PART_TOP_2DLINE_126
10
1.4605
20
-0.54
0
ENDBLK
0
BLOCK
2
STK_TOP_43
8
0
10
0
20
0
3
STK_TOP_43
70
64
0
INSERT
2
DRIL_HOLE_0
8
DRIL_PLTE_THRU_01
10
0
20
0
0
INSERT
2
DRIL_HOLE_0
8
DRIL_PLTE_THRU_02
10
0
20
0
0
INSERT
2
PAD_0
8
PADS_INNER
10
0
20
0
0
INSERT
2
PAD_0
8
PADS_BOT
10
0
20
0
0
INSERT
2
PAD_7
8
PADS_TOP
10
0
20
0
0
ENDBLK
0
BLOCK
2
PART_BODY_TOP_1
8
0
10
0
20
0
3
PART_BODY_TOP_1
70
64
0
POLYLINE
8
PART_TOP_2DLINE_117
66
1
40
0.127
41
0.127
70
1
0
VERTEX
8
PART_TOP_2DLINE_117
10
0.9999973333
20
-0.849884
0
VERTEX
8
PART_TOP_2DLINE_117
10
-0.9999973333
20
-0.849884
0
VERTEX
8
PART_TOP_2DLINE_117
10
-0.9999973333
20
0.849884
0
VERTEX
8
PART_TOP_2DLINE_117
10
0.9999973333
20
0.849884
0
SEQEND
0
INSERT
2
SMOOTH_0$127
8
PART_TOP_2DLINE_117
10
0.9999973333
20
-0.849884
0
INSERT
2
SMOOTH_0$127
8
PART_TOP_2DLINE_117
10
-0.9999973333
20
-0.849884
0
INSERT
2
SMOOTH_0$127
8
PART_TOP_2DLINE_117
10
-0.9999973333
20
0.849884
0
INSERT
2
SMOOTH_0$127
8
PART_TOP_2DLINE_117
10
0.9999973333
20
0.849884
0
ENDBLK
0
BLOCK
2
STK_TOP_4
8
0
10
0
20
0
3
STK_TOP_4
70
64
0
INSERT
2
DRIL_HOLE_0
8
DRIL_PLTE_THRU_01
10
0
20
0
0
INSERT
2
DRIL_HOLE_0
8
DRIL_PLTE_THRU_02
10
0
20
0
0
INSERT
2
PAD_0
8
PADS_INNER
10
0
20
0
0
INSERT
2
PAD_0
8
PADS_BOT
10
0
20
0
0
INSERT
2
PAD_8
8
PADS_TOP
10
0
20
0
50
90
0
ENDBLK
0
BLOCK
2
PART_BODY_TOP_2
8
0
10
0
20
0
3
PART_BODY_TOP_2
70
64
0
POLYLINE
8
PART_TOP_2DLINE_117
66
1
40
0.127
41
0.127
70
1
0
VERTEX
8
PART_TOP_2DLINE_117
10
-1.8498813333
20
-2.2499313333
0
VERTEX
8
PART_TOP_2DLINE_117
10
1.8498813333
20
-2.2499313333
0
VERTEX
8
PART_TOP_2DLINE_117
10
1.8498813333
20
-1.175004
0
VERTEX
8
PART_TOP_2DLINE_117
10
2.2499313333
20
-1.175004
0
VERTEX
8
PART_TOP_2DLINE_117
10
2.2499313333
20
1.175004
0
VERTEX
8
PART_TOP_2DLINE_117
10
1.8498813333
20
1.175004
0
VERTEX
8
PART_TOP_2DLINE_117
10
1.8498813333
20
2.2499313333
0
VERTEX
8
PART_TOP_2DLINE_117
10
-1.8498813333
20
2.2499313333
0
VERTEX
8
PART_TOP_2DLINE_117
10
-1.8498813333
20
1.175004
0
VERTEX
8
PART_TOP_2DLINE_117
10
-2.2499313333
20
1.175004
0
VERTEX
8
PART_TOP_2DLINE_117
10
-2.2499313333
20
-1.175004
0
VERTEX
8
PART_TOP_2DLINE_117
10
-1.8498813333
20
-1.175004
0
SEQEND
0
INSERT
2
SMOOTH_0$127
8
PART_TOP_2DLINE_117
10
-1.8498813333
20
-2.2499313333
0
INSERT
2
SMOOTH_0$127
8
PART_TOP_2DLINE_117
10
1.8498813333
20
-2.2499313333
0
INSERT
2
SMOOTH_0$127
8
PART_TOP_2DLINE_117
10
1.8498813333
20
-1.175004
0
INSERT
2
SMOOTH_0$127
8
PART_TOP_2DLINE_117
10
2.2499313333
20
-1.175004
0
INSERT
2
SMOOTH_0$127
8
PART_TOP_2DLINE_117
10
2.2499313333
20
1.175004
0
INSERT
2
SMOOTH_0$127
8
PART_TOP_2DLINE_117
10
1.8498813333
20
1.175004
0
INSERT
2
SMOOTH_0$127
8
PART_TOP_2DLINE_117
10
1.8498813333
20
2.2499313333
0
INSERT
2
SMOOTH_0$127
8
PART_TOP_2DLINE_117
10
-1.8498813333
20
2.2499313333
0
INSERT
2
SMOOTH_0$127
8
PART_TOP_2DLINE_117
10
-1.8498813333
20
1.175004
0
INSERT
2
SMOOTH_0$127
8
PART_TOP_2DLINE_117
10
-2.2499313333
20
1.175004
0
INSERT
2
SMOOTH_0$127
8
PART_TOP_2DLINE_117
10
-2.2499313333
20
-1.175004
0
INSERT
2
SMOOTH_0$127
8
PART_TOP_2DLINE_117
10
-1.8498813333
20
-1.175004
0
ENDBLK
0
BLOCK
2
STK_TOP_5
8
0
10
0
20
0
3
STK_TOP_5
70
64
0
INSERT
2
DRIL_HOLE_0
8
DRIL_PLTE_THRU_01
10
0
20
0
0
INSERT
2
DRIL_HOLE_0
8
DRIL_PLTE_THRU_02
10
0
20
0
0
INSERT
2
PAD_0
8
PADS_INNER
10
0
20
0
0
INSERT
2
PAD_0
8
PADS_BOT
10
0
20
0
0
INSERT
2
PAD_9
8
PADS_TOP
10
0
20
0
0
ENDBLK
0
BLOCK
2
PART_BODY_TOP_4
8
0
10
0
20
0
3
PART_BODY_TOP_4
70
64
0
POLYLINE
8
PART_TOP_2DLINE_126
66
1
40
0.127
41
0.127
70
1
0
VERTEX
8
PART_TOP_2DLINE_126
10
-16.51
20
1.205
0
VERTEX
8
PART_TOP_2DLINE_126
10
16.51
20
1.205
0
VERTEX
8
PART_TOP_2DLINE_126
10
16.51
20
-1.205
0
VERTEX
8
PART_TOP_2DLINE_126
10
-16.51
20
-1.205
0
SEQEND
0
INSERT
2
SMOOTH_0$127
8
PART_TOP_2DLINE_126
10
-16.51
20
1.205
0
INSERT
2
SMOOTH_0$127
8
PART_TOP_2DLINE_126
10
16.51
20
1.205
0
INSERT
2
SMOOTH_0$127
8
PART_TOP_2DLINE_126
10
16.51
20
-1.205
0
INSERT
2
SMOOTH_0$127
8
PART_TOP_2DLINE_126
10
-16.51
20
-1.205
0
ENDBLK
999
*** POWERPCB  PCB PARAMETER ***
0
BLOCK
2
PCB_PARAMS
8
0
10
0
20
0
3
PCB_PARAMS
70
64
999
 *  1.Job name           2.Backupfile name       3.CursorType
999
 *  4.TearDropFlag       5.HighlighNetsFlag      6.HatchDisplayFlag
999
 *  7.PadsFlag           8.TracksFlag            9.ViasFlag
999
 * 10.CopperFlag        11.LinesFlag            12.TextFlag
999
 * 13.TopComponentFlag  14.BottomComponentFlag  16.ObjectSnapFlags
0
TEXT
8
PCB_PARAMS
10
0
20
-3.048
40
1.778
1
A:=T-AMOLED_1.1.pcb <> 5 0 0 0 1 1 1 1 1 1 1 1 32 502 0
999
 *  1.RefDesHeight       2.RefDesWidth           3.DefaultWidth
999
 *  4.VGX                5.VGY                   6.OVR
999
 *  7.HatchGrid          8.ObjectSnapRadius
0
TEXT
8
PCB_PARAMS
10
0
20
-6.096
40
1.778
1
B:=2.54 0.254 0.23 0.01 0.01 0.0762 0.254 2.54
999
 *  1.ScaleFactor        2.NetAttributeFlags     3.BackupInterval
999
 *  4.WorkingLevel       5.HatchMode             6.HatchDirection
999
 *  7.ConnectionColor    8.BackgroundColor       9.ForegroundColor
999
 * 10.BoardOutlineColor
0
TEXT
8
PCB_PARAMS
10
0
20
-9.144
40
1.778
1
C:=25.037437439 40010002 20 2 0 0 0 0 8 8
999
 * MitreAngle0 - MitreAngle6
0
TEXT
8
PCB_PARAMS
10
0
20
-12.192
40
1.778
1
D:=324000000 324000000 324000000 324000000 324000000 324000000 162000000
999
 * Hatch & Keepout Parameters
0
TEXT
8
PCB_PARAMS
10
0
20
-15.24
40
1.778
1
E:=0.5 0 0 2.54 0 1
999
 * Fanout Parameters
0
TEXT
8
PCB_PARAMS
10
0
20
-18.288
40
1.778
1
F:=0.01 0.01 6.35 1 2 0 1 1 0 0 1 1 1 1
999
 * Pad Entry Parameters
0
TEXT
8
PCB_PARAMS
10
0
20
-21.336
40
1.778
1
P:= 1 1 1 1
999
 * DFF Parameters
0
TEXT
8
PCB_PARAMS
10
0
20
-24.384
40
1.778
1
Q:=89.9999 3967 114300 114300 114300 5 4 114300 114300 114300 114300 1 114300 1 114300 1 114300 0
0
ENDBLK
0
BLOCK
2
DRIL_SYMBOL_0
8
0
10
0
20
0
3
DRIL_SYMBOL_0
70
64
0
ENDBLK
0
BLOCK
2
DRIL_SYMBOL_0$9
8
0
10
0
20
0
3
DRIL_SYMBOL_0$9
70
64
0
POLYLINE
8
DRIL_SYMBOL
66
1
40
0.0508
41
0.0508
0
VERTEX
8
DRIL_SYMBOL
10
0
20
-0.254
0
VERTEX
8
DRIL_SYMBOL
10
0
20
0.254
0
SEQEND
0
POLYLINE
8
DRIL_SYMBOL
66
1
40
0.0508
41
0.0508
0
VERTEX
8
DRIL_SYMBOL
10
-0.254
20
0
0
VERTEX
8
DRIL_SYMBOL
10
0.254
20
0
0
SEQEND
0
ENDBLK
0
BLOCK
2
DRIL_SYMBOL_0$899998
8
0
10
0
20
0
3
DRIL_SYMBOL_0$899998
70
64
0
POLYLINE
8
DRIL_SYMBOL
66
1
40
0.0508
41
0.0508
0
VERTEX
8
DRIL_SYMBOL
10
0
20
-0.254
0
VERTEX
8
DRIL_SYMBOL
10
0
20
0.254
0
SEQEND
0
POLYLINE
8
DRIL_SYMBOL
66
1
40
0.0508
41
0.0508
0
VERTEX
8
DRIL_SYMBOL
10
-0.254
20
0
0
VERTEX
8
DRIL_SYMBOL
10
0.254
20
0
0
SEQEND
0
ENDBLK
999
*** POWERPCB  SMOOTH CIRCLE ***
0
BLOCK
2
SMOOTH_0$1
8
0
10
0
20
0
3
SMOOTH_0$1
70
64
0
POLYLINE
8
0
66
1
40
0.05
41
0.05
70
1
0
VERTEX
8
0
10
-0.025
20
0
42
1
0
VERTEX
8
0
10
0.025
20
0
42
1
0
SEQEND
0
ENDBLK
0
BLOCK
2
SMOOTH_0$127
8
0
10
0
20
0
3
SMOOTH_0$127
70
64
0
POLYLINE
8
0
66
1
40
0.0635
41
0.0635
70
1
0
VERTEX
8
0
10
-0.03175
20
0
42
1
0
VERTEX
8
0
10
0.03175
20
0
42
1
0
SEQEND
0
ENDBLK
0
BLOCK
2
SMOOTH_0$254
8
0
10
0
20
0
3
SMOOTH_0$254
70
64
0
POLYLINE
8
0
66
1
40
0.127
41
0.127
70
1
0
VERTEX
8
0
10
-0.0635
20
0
42
1
0
VERTEX
8
0
10
0.0635
20
0
42
1
0
SEQEND
0
ENDBLK
0
BLOCK
2
SMOOTH_0$2
8
0
10
0
20
0
3
SMOOTH_0$2
70
64
0
POLYLINE
8
0
66
1
40
0.1
41
0.1
70
1
0
VERTEX
8
0
10
-0.05
20
0
42
1
0
VERTEX
8
0
10
0.05
20
0
42
1
0
SEQEND
0
ENDBLK
0
BLOCK
2
PAD_0
8
0
10
0
20
0
3
PAD_0
70
64
0
POLYLINE
8
0
70
1
66
1
0
VERTEX
8
0
10
0
20
0
42
1
0
VERTEX
8
0
10
0
20
0
42
1
0
SEQEND
0
ENDBLK
0
BLOCK
2
PAD_1
8
0
10
0
20
0
3
PAD_1
70
64
0
POLYLINE
8
0
66
1
40
1.299972
41
1.299972
0
VERTEX
8
0
10
-1.4999966667
20
0
0
VERTEX
8
0
10
1.4999966667
20
0
0
SEQEND
0
ENDBLK
0
BLOCK
2
PAD_2
8
0
10
0
20
0
3
PAD_2
70
64
0
POLYLINE
8
0
66
1
40
0.2999993333
41
0.2999993333
0
VERTEX
8
0
10
-0.3999986667
20
0
0
VERTEX
8
0
10
0.3999986667
20
0
0
SEQEND
0
ENDBLK
0
BLOCK
2
PAD_3
8
0
10
0
20
0
3
PAD_3
70
64
0
POLYLINE
8
0
66
1
40
0.2999993333
41
0.2999993333
0
VERTEX
8
0
10
-0.3250053333
20
0
0
VERTEX
8
0
10
0.3250053333
20
0
0
SEQEND
0
ENDBLK
0
BLOCK
2
PAD_4
8
0
10
0
20
0
3
PAD_4
70
64
0
POLYLINE
8
0
66
1
40
0.3999986667
41
0.3999986667
0
VERTEX
8
0
10
-0.4750053333
20
0
0
VERTEX
8
0
10
0.4750053333
20
0
0
SEQEND
0
ENDBLK
0
BLOCK
2
PAD_5
8
0
10
0
20
0
3
PAD_5
70
64
0
POLYLINE
8
0
70
1
66
1
40
0.899998
41
0.899998
0
VERTEX
8
0
10
-0.0000506667
20
-0.4499986667
0
VERTEX
8
0
10
0.0000506667
20
-0.4499986667
42
1
0
VERTEX
8
0
10
0.0000506667
20
0.4499986667
0
VERTEX
8
0
10
-0.0000506667
20
0.4499986667
42
1
0
SEQEND
0
ENDBLK
0
BLOCK
2
PAD_6
8
0
10
0
20
0
3
PAD_6
70
64
0
POLYLINE
8
0
70
1
66
1
40
0.9000486667
41
0.9000486667
0
VERTEX
8
0
10
0
20
-0.450024
0
VERTEX
8
0
10
0
20
-0.450024
42
1
0
VERTEX
8
0
10
0
20
0.450024
0
VERTEX
8
0
10
0
20
0.450024
42
1
0
SEQEND
0
ENDBLK
0
BLOCK
2
PAD_7
8
0
10
0
20
0
3
PAD_7
70
64
0
POLYLINE
8
0
66
1
40
0.8
41
0.8
0
VERTEX
8
0
10
-0.48
20
0
0
VERTEX
8
0
10
0.48
20
0
0
SEQEND
0
ENDBLK
0
BLOCK
2
PAD_8
8
0
10
0
20
0
3
PAD_8
70
64
0
POLYLINE
8
0
70
1
66
1
0
VERTEX
8
0
10
-0.3250566667
20
-0.1499866667
0
VERTEX
8
0
10
0.3250566667
20
-0.1499866667
42
0.4142135624
0
VERTEX
8
0
10
0.40005
20
-0.0749933333
0
VERTEX
8
0
10
0.40005
20
0.0749933333
42
0.4142135624
0
VERTEX
8
0
10
0.3250566667
20
0.1499866667
0
VERTEX
8
0
10
-0.3250566667
20
0.1499866667
42
0.4142135624
0
VERTEX
8
0
10
-0.40005
20
0.0749933333
0
VERTEX
8
0
10
-0.40005
20
-0.0749933333
42
0.4142135624
0
SEQEND
0
ENDBLK
0
BLOCK
2
PAD_9
8
0
10
0
20
0
3
PAD_9
70
64
0
POLYLINE
8
0
66
1
40
0.8001
41
0.8001
0
VERTEX
8
0
10
-0.599948
20
0
0
VERTEX
8
0
10
0.599948
20
0
0
SEQEND
0
ENDBLK
999
*** POWERPCB  DRILL HOLE ***
0
BLOCK
2
DRIL_HOLE_0
8
0
10
0
20
0
3
DRIL_HOLE_0
70
64
0
POLYLINE
8
0
66
1
70
1
0
VERTEX
8
0
10
0
20
0
42
1
0
VERTEX
8
0
10
0
20
0
42
1
0
SEQEND
0
INSERT
2
DRIL_SYMBOL_0
8
0
10
0
20
0
0
ENDBLK
0
BLOCK
2
DRIL_HOLE_0$9
8
0
10
0
20
0
3
DRIL_HOLE_0$9
70
64
0
POLYLINE
8
0
66
1
40
0.45
41
0.45
70
1
0
VERTEX
8
0
10
-0.225
20
0
42
1
0
VERTEX
8
0
10
0.225
20
0
42
1
0
SEQEND
0
INSERT
2
DRIL_SYMBOL_0$9
8
0
10
0
20
0
0
ENDBLK
0
BLOCK
2
DRIL_HOLE_0$899998
8
0
10
0
20
0
3
DRIL_HOLE_0$899998
70
64
0
POLYLINE
8
0
66
1
40
0.4499986667
41
0.4499986667
70
1
0
VERTEX
8
0
10
-0.2249993333
20
0
42
1
0
VERTEX
8
0
10
0.2249993333
20
0
42
1
0
SEQEND
0
INSERT
2
DRIL_SYMBOL_0$899998
8
0
10
0
20
0
0
ENDBLK
0
ENDSEC
0
SECTION
2
ENTITIES
999
*** POWERPCB  DBLAYER ***
0
INSERT
2
DBLAYERS
8
0
10
0
20
0
999
*** POWERPCB  BOARD ***
0
INSERT
2
BOARD_47
8
0
10
0.0000046667
20
10.6710033333
999
*** POWERPCB  2DLINE ***
0
INSERT
2
DRAWING_3
8
0
10
9.881578
20
13.8947606667
0
INSERT
2
D_2dfeghi_28
8
0
10
0
20
-3.081312
0
INSERT
2
D_2dfeghi_29
8
0
10
0
20
-3.081312
0
INSERT
2
D_2dfeghi_30
8
0
10
0
20
-3.081312
0
INSERT
2
D_1dfeghi_31
8
0
10
0
20
56.6582913333
999
*** POWERPCB  FREE TEXT ***
0
TEXT
8
TEXT_126
10
19.9643646667
20
7.7243233333
40
1.4
1
RST
50
90
41
0.75
7
W0$1524
0
TEXT
8
TEXT_126
10
18.3873866667
20
11.201762
40
1.0668
1
2023-06-07
50
90
41
0.75
7
W0$1524
0
TEXT
8
TEXT_126
10
3.85
20
53.40531
40
3.15
1
LILYGO
41
0.75
7
W0$65
0
TEXT
8
TEXT_126
10
18.28717
20
51.8565933333
40
0.7
1
11
41
0.75
7
W0$127
0
TEXT
8
TEXT_126
10
18.28717
20
49.3159506667
40
0.7
1
12
41
0.75
7
W0$127
0
TEXT
8
TEXT_126
10
18.28717
20
46.812854
40
0.7
1
13
41
0.75
7
W0$127
0
TEXT
8
TEXT_126
10
18.28717
20
44.24718
40
0.7
1
14
41
0.75
7
W0$127
0
TEXT
8
TEXT_126
10
18.28717
20
41.674596
40
0.7
1
15
41
0.75
7
W0$127
0
TEXT
8
TEXT_126
10
18.28717
20
39.1804486667
40
0.7
1
16
41
0.75
7
W0$127
0
TEXT
8
TEXT_126
10
18.28717
20
36.6177813333
40
0.7
1
17
41
0.75
7
W0$127
0
TEXT
8
TEXT_126
10
18.28717
20
34.055114
40
0.7
1
18
41
0.75
7
W0$127
0
TEXT
8
TEXT_126
10
18.28717
20
31.5609666667
40
0.7
1
21
41
0.75
7
W0$127
0
TEXT
8
TEXT_126
10
18.28717
20
28.9708913333
40
0.7
1
45
41
0.75
7
W0$127
0
TEXT
8
TEXT_126
10
18.28717
20
26.4767446667
40
0.7
1
46
41
0.75
7
W0$127
0
TEXT
8
TEXT_126
10
18.28717
20
23.9003733333
40
0.7
1
47
41
0.75
7
W0$127
0
TEXT
8
TEXT_126
10
18.0772186667
20
21.320682
40
0.7
1
48
41
0.75
7
W0$127
0
TEXT
8
TEXT_126
10
0.84109
20
51.837408
40
0.7
1
GND
41
0.75
7
W0$127
0
TEXT
8
TEXT_126
10
0.84109
20
46.7785026667
40
0.7
1
RXD
41
0.75
7
W0$127
0
TEXT
8
TEXT_126
10
0.84109
20
44.24905
40
0.7
1
TXD
41
0.75
7
W0$127
0
TEXT
8
TEXT_126
10
0.84109
20
41.707074
40
0.7
1
3V3
41
0.75
7
W0$127
0
TEXT
8
TEXT_126
10
0.84109
20
39.1776213333
40
0.7
1
GND
41
0.75
7
W0$127
0
TEXT
8
TEXT_126
10
0.84109
20
36.66069
40
0.7
1
42
41
0.75
7
W0$127
0
TEXT
8
TEXT_126
10
0.84109
20
34.0609733333
40
0.7
1
41
41
0.75
7
W0$127
0
TEXT
8
TEXT_126
10
0.84109
20
31.566826
40
0.7
1
40
41
0.75
7
W0$127
0
TEXT
8
TEXT_126
10
0.84109
20
28.9767506667
40
0.7
1
39
41
0.75
7
W0$127
0
TEXT
8
TEXT_126
10
0.84109
20
26.482604
40
0.7
1
38
41
0.75
7
W0$127
0
TEXT
8
TEXT_126
10
0.5749993333
20
23.8506546667
40
0.7
1
VBUS
41
0.75
7
W0$127
0
TEXT
8
TEXT_126
10
0.7973673333
20
21.0431953333
40
0.7
1
GND
41
0.75
7
W0$127
0
TEXT
8
TEXT_126
10
0.84109
20
49.3455213333
40
0.7
1
GND
41
0.75
7
W0$127
0
TEXT
8
TEXT_126
10
7.8431733333
20
27.4092553333
40
0.7
1
1
41
0.75
7
W0$127
0
TEXT
8
TEXT_126
10
7.6911686667
20
31.1009206667
40
0.7
1
13
41
0.75
7
W0$127
0
TEXT
8
TEXT_126
10
2.458034
20
8.1810273333
40
2.1
1
T-Track
50
90
41
0.75
7
W0$2
0
TEXT
8
TEXT_126
10
19.9182173333
20
13.8963333333
40
1.0668
1
V1.2
50
90
41
0.75
7
W0$1524
0
TEXT
8
TEXT_126
10
11.0914073333
20
1.2851753333
40
1.0668
1
3V3
50
90
41
0.75
7
W0$1524
0
TEXT
8
TEXT_126
10
12.4512566667
20
1.2590246667
40
1.0668
1
GND
50
90
41
0.75
7
W0$1524
0
TEXT
8
TEXT_126
10
9.75771
20
1.232874
40
1.0668
1
IO43
50
90
41
0.75
7
W0$1524
0
TEXT
8
TEXT_126
10
8.2540306667
20
1.232874
40
1.0668
1
IO44
50
90
41
0.75
7
W0$1524
999
*** POWERPCB  COMPONENT ***
0
INSERT
2
PART_TOP_9
8
0
10
9.830776
20
13.7423646667
0
INSERT
2
PART_TOP_10
8
0
10
3.3929
20
21.127708
50
270
0
INSERT
2
PART_TOP_16
8
0
10
18.56894
20
38.228328
50
90
0
INSERT
2
PART_TOP_38
8
0
10
4.1327646667
20
13.650736
50
90
0
INSERT
2
PART_TOP_40
8
0
10
6.163016
20
10.0603806667
50
270
0
INSERT
2
PART_TOP_53
8
0
10
13.605216
20
9.9587806667
50
180
0
INSERT
2
PART_TOP_54
8
0
10
13.503616
20
17.8073806667
50
90
0
INSERT
2
PART_TOP_55
8
0
10
6.493216
20
17.6041806667
0
INSERT
2
PART_TOP_56
8
0
10
10.023816
20
13.7687806667
50
90
0
INSERT
2
PART_TOP_57
8
0
10
1.55
20
38.22833
50
90
999
*** POWERPCB  PCB PARAMETER ***
0
INSERT
2
PCB_PARAMS
8
0
10
0
20
0
0
ENDSEC
0
EOF
